<svg width="28" height="28" viewBox="0 0 28 28" fill="none" xmlns="http://www.w3.org/2000/svg">
<path fill-rule="evenodd" clip-rule="evenodd" d="M14 1.16663C6.88329 1.16663 1.16663 6.88329 1.16663 14C1.16663 21.1166 6.88329 26.8333 14 26.8333C21.1166 26.8333 26.8333 21.1166 26.8333 14C26.8333 6.88329 21.1166 1.16663 14 1.16663ZM14 24.5C8.16663 24.5 3.49996 19.8333 3.49996 14C3.49996 8.16663 8.16663 3.49996 14 3.49996C19.8333 3.49996 24.5 8.16663 24.5 14C24.5 19.8333 19.8333 24.5 14 24.5ZM18.6666 15.1666C19.3666 15.1666 19.8333 14.7 19.8333 14C19.8333 13.3 19.3666 12.8333 18.6666 12.8333H15.1666V9.33329C15.1666 8.63329 14.7 8.16663 14 8.16663C13.3 8.16663 12.8333 8.63329 12.8333 9.33329V12.8333H9.33329C8.63329 12.8333 8.16663 13.3 8.16663 14C8.16663 14.7 8.63329 15.1666 9.33329 15.1666H12.8333V18.6666C12.8333 19.3666 13.3 19.8333 14 19.8333C14.7 19.8333 15.1666 19.3666 15.1666 18.6666V15.1666H18.6666Z" fill="black"/>
<mask id="mask0_0_5211" style="mask-type:alpha" maskUnits="userSpaceOnUse" x="1" y="1" width="26" height="26">
<path fill-rule="evenodd" clip-rule="evenodd" d="M14 1.16663C6.88329 1.16663 1.16663 6.88329 1.16663 14C1.16663 21.1166 6.88329 26.8333 14 26.8333C21.1166 26.8333 26.8333 21.1166 26.8333 14C26.8333 6.88329 21.1166 1.16663 14 1.16663ZM14 24.5C8.16663 24.5 3.49996 19.8333 3.49996 14C3.49996 8.16663 8.16663 3.49996 14 3.49996C19.8333 3.49996 24.5 8.16663 24.5 14C24.5 19.8333 19.8333 24.5 14 24.5ZM18.6666 15.1666C19.3666 15.1666 19.8333 14.7 19.8333 14C19.8333 13.3 19.3666 12.8333 18.6666 12.8333H15.1666V9.33329C15.1666 8.63329 14.7 8.16663 14 8.16663C13.3 8.16663 12.8333 8.63329 12.8333 9.33329V12.8333H9.33329C8.63329 12.8333 8.16663 13.3 8.16663 14C8.16663 14.7 8.63329 15.1666 9.33329 15.1666H12.8333V18.6666C12.8333 19.3666 13.3 19.8333 14 19.8333C14.7 19.8333 15.1666 19.3666 15.1666 18.6666V15.1666H18.6666Z" fill="white"/>
</mask>
<g mask="url(#mask0_0_5211)">
<rect width="28" height="28" fill="#CFD2D8"/>
</g>
</svg>
