<svg width="34" height="34" viewBox="0 0 34 34" fill="none" xmlns="http://www.w3.org/2000/svg">
<path fill-rule="evenodd" clip-rule="evenodd" d="M7.08331 17.3116L17.5165 23.4786L17.5165 23.4787L17.5167 23.4787V23.4786L21.3088 21.2371L27.9499 17.3115L17.5167 0.000253181V7.62939e-05L17.5166 0.000164738L17.5165 0L17.5163 0.00064372L7.08331 17.3116ZM17.5166 33.9924L17.5164 33.992L7.08331 19.29L17.5167 25.454L27.9561 19.2901L17.5167 33.9923L17.5166 33.9924Z" fill="#0D1F3C"/>
<mask id="mask0_161_8920" style="mask-type:alpha" maskUnits="userSpaceOnUse" x="7" y="0" width="21" height="34">
<path fill-rule="evenodd" clip-rule="evenodd" d="M7.08331 17.3116L17.5165 23.4786L17.5165 23.4787L17.5167 23.4787V23.4786L21.3088 21.2371L27.9499 17.3115L17.5167 0.000253181V7.62939e-05L17.5166 0.000164738L17.5165 0L17.5163 0.00064372L7.08331 17.3116ZM17.5166 33.9924L17.5164 33.992L7.08331 19.29L17.5167 25.454L27.9561 19.2901L17.5167 33.9923L17.5166 33.9924Z" fill="white"/>
</mask>
<g mask="url(#mask0_161_8920)">
</g>
</svg>
