<svg width="275" height="212" viewBox="0 0 275 212" fill="none" xmlns="http://www.w3.org/2000/svg">
<path d="M42.4765 206.181C36.6666 204.449 27.4999 200.858 19.2739 192.902C5.3118 179.403 2.98785 161.962 1.65989 150.857C-2.988 111.777 13.9989 69.9349 41.5911 42.3469C61.0311 22.9174 82.9057 13.3592 91.2793 10.0627C92.4044 9.62065 104.725 4.79552 117.857 2.3277C123.316 1.29637 199.158 -11.7241 243.258 39.4555C267.087 67.0803 269.485 99.3277 271.477 126.197C273.119 148.353 269.817 160.526 266.313 168.924C259.083 186.272 247.094 196.954 240.122 202.258" fill="#E0E9F8"/>
<g opacity="0.5">
<path d="M32.48 193.197C17.9093 192.294 5.57025 179.845 5.47803 169.347C5.40425 160.673 13.7225 158.426 13.9992 147.487C14.2389 138.039 8.13396 135.94 9.16683 127.892C10.255 119.438 18.5364 109.751 28.4961 109.714C39.9499 109.696 47.7332 122.477 48.3972 132.717C48.8399 139.678 44.5793 140.636 44.7084 147.192C44.9482 160.599 61.7138 164.43 61.474 174.449C61.2711 183.657 46.8295 194.081 32.48 193.197Z" fill="#99B9EE"/>
</g>
<rect x="31.5024" y="123.932" width="0.848424" height="76.355" fill="#99B9EE"/>
<path d="M31.8159 150.433C24.7334 149.954 23.7559 139.586 23.719 139.144L24.5674 139.07C24.5674 139.162 25.5265 149.163 31.8712 149.586L31.8159 150.433Z" fill="#99B9EE"/>
<path d="M31.8161 177.119C26.744 176.788 26.0615 169.421 26.0247 169.108L26.8731 169.034C26.8731 169.108 27.5371 175.996 31.8714 176.29L31.8161 177.119Z" fill="#99B9EE"/>
<path d="M31.5579 166.051L31.521 165.204C37.46 164.909 38.3268 158.297 38.3268 158.224L39.1753 158.316C39.1568 158.408 38.1977 165.719 31.5579 166.051Z" fill="#99B9EE"/>
<path d="M31.8345 185.627L31.7976 184.78C35.9844 184.578 36.593 180.029 36.6115 179.826L37.4599 179.937C37.4415 179.992 36.7406 185.406 31.8345 185.627Z" fill="#99B9EE"/>
<g opacity="0.5">
<path d="M61.0681 194.375C53.8012 193.933 47.6409 187.727 47.604 182.478C47.5671 178.15 51.717 177.027 51.8646 171.576C51.9937 166.861 48.932 165.811 49.4484 161.815C49.9833 157.597 54.1147 152.772 59.0946 152.754C64.7938 152.736 68.6855 159.108 69.0175 164.227C69.2388 167.69 67.1178 168.169 67.1731 171.447C67.2838 178.132 75.6573 180.047 75.5282 185.038C75.4176 189.624 68.2244 194.817 61.0681 194.375Z" fill="#99B9EE"/>
</g>
<rect x="60.5884" y="159.826" width="0.424212" height="38.067" fill="#99B9EE"/>
<path d="M60.736 173.049C57.2132 172.81 56.7152 167.635 56.6968 167.414L57.121 167.377C57.121 167.432 57.6005 172.405 60.7729 172.626L60.736 173.049Z" fill="#99B9EE"/>
<path d="M60.736 186.364C58.2092 186.199 57.8588 182.515 57.8403 182.368L58.2645 182.331C58.2645 182.368 58.5965 185.793 60.7545 185.941L60.736 186.364Z" fill="#99B9EE"/>
<path d="M60.6068 180.839L60.5884 180.416C63.5394 180.268 63.9821 176.972 63.9821 176.935L64.4063 176.99C64.4063 177.027 63.9267 180.674 60.6068 180.839Z" fill="#99B9EE"/>
<path d="M60.7545 190.6L60.7361 190.176C62.8203 190.084 63.1338 187.801 63.1338 187.708L63.558 187.764C63.5396 187.801 63.1891 190.489 60.7545 190.6Z" fill="#99B9EE"/>
<path d="M137.518 210.048C213.447 210.048 275 207.17 275 203.621C275 200.071 213.447 197.193 137.518 197.193C61.5894 197.193 0.0368652 200.071 0.0368652 203.621C0.0368652 207.17 61.5894 210.048 137.518 210.048Z" fill="#C5D6F1"/>
<rect x="46.4912" y="61.9268" width="65.4762" height="3.09398" fill="#C5D6F1"/>
<rect x="11.0234" y="82.0042" width="65.4762" height="3.09398" fill="#C5D6F1"/>
<rect x="41.9727" y="98.9434" width="65.4762" height="3.09398" fill="#C5D6F1"/>
<path d="M159.36 116.441L158.331 126.241C158.362 125.956 161.577 125.135 161.831 125.04C165.584 123.791 169.353 122.637 173.138 121.531C187.218 117.389 201.233 113.754 214.616 107.621C215.154 107.384 215.693 107.115 216.073 106.672C217.181 105.408 215.709 98.1369 216.548 97.8049C197.892 105.329 178.586 110.545 159.36 116.441Z" fill="#347AF0"/>
<path d="M187.392 86.5191C187.392 87.0091 186.315 89.9334 185.776 91.3559C185.681 91.6247 185.602 91.8301 185.539 91.9566C185.523 92.0198 185.491 92.0672 185.491 92.0831C185.491 92.0989 185.476 92.0989 185.476 92.1147C183.765 96.3983 177.145 113.311 172.885 113.153C168.292 112.979 156.383 95.6712 156.383 95.6712L161.799 91.9092C161.799 91.9092 170.842 105.218 172.331 106.451C173.788 107.637 181.5 91.2611 181.928 90.3285C181.516 89.3643 180.392 86.6298 180.772 86.1556C181.215 85.5707 181.548 86.5349 181.548 86.5349C181.548 86.5349 181.421 85.5075 182.387 85.1756C183.353 84.8436 183.417 85.0333 184.003 84.8436C184.589 84.654 185.159 84.4485 185.745 84.9069C186.362 85.3652 187.392 85.8711 187.392 86.5191Z" fill="#B97A59"/>
<path d="M93.6523 155.246V169.156L98.1501 160.115C98.1501 160.115 98.4827 160.178 99.0845 160.304C98.5777 158.85 98.6093 157.095 98.2768 155.499C95.4578 155.341 93.6523 155.246 93.6523 155.246Z" fill="#0B4870"/>
<path d="M98.2766 155.483C98.6092 157.08 98.5617 158.834 99.0843 160.289C99.9553 160.462 101.381 160.731 103.186 161.063C102.505 159.261 101.856 157.459 101.349 155.626C100.225 155.578 99.1952 155.531 98.2766 155.483Z" fill="white"/>
<path d="M144.236 148.481C141.259 147.137 138.281 146.347 135.383 144.988C133.102 150.394 130.901 154.63 129.412 155.23C126.356 156.495 110.899 156.037 101.333 155.61C101.824 157.443 102.474 159.245 103.17 161.047C112.229 162.691 130.869 165.726 135.953 163.798C138.519 162.818 143.365 156.21 147.799 149.429C146.596 149.319 145.424 149.018 144.236 148.481Z" fill="#B97A59"/>
<path d="M158.648 118.385H144.949C144.949 118.385 140.007 134.065 135.383 144.988C138.281 146.347 141.259 147.137 144.236 148.481C145.408 149.018 146.596 149.319 147.799 149.445C152.867 141.684 157.412 133.686 157.412 133.686L158.648 118.385Z" fill="#0B4870"/>
<path d="M159.059 121.863L142.304 120.93C142.304 120.93 137.394 126.952 139.231 132.058C140.657 135.994 149.161 142.143 155.306 149.999C159.344 149.161 163.605 148.212 167.643 146.806C163.985 136.168 159.059 121.863 159.059 121.863Z" fill="#0E538C"/>
<path d="M176.005 197.924C177.525 197.086 178.982 196.122 180.423 195.095C180.265 194.399 180.059 193.482 179.822 192.392C178.38 193.561 176.718 194.51 175.055 195.474C175.387 196.343 175.704 197.165 176.005 197.924Z" fill="white"/>
<path d="M167.659 146.805C163.62 148.196 159.36 149.16 155.322 149.998C157.127 152.306 158.727 154.756 159.883 157.348C162.496 163.181 170.684 184.172 175.055 195.458C176.718 194.494 178.365 193.545 179.822 192.376C177.779 183.303 172.901 161.932 171.143 156.858C170.462 154.961 169.163 151.199 167.659 146.805Z" fill="#B97A59"/>
<path d="M180.725 196.502C180.725 196.502 180.614 195.996 180.408 195.095C178.982 196.122 177.525 197.086 175.989 197.924C177.145 200.896 177.858 202.745 177.858 202.745L190.939 196.723L180.725 196.502Z" fill="#0B4870"/>
<path d="M161.562 86.2346L162.322 84.5274C161.593 83.4842 161.086 82.2829 160.58 81.1606C160.105 82.7255 160.627 84.6539 161.562 86.2346Z" fill="#B97A59"/>
<path d="M156.605 70.0327L152.519 85.539L159.677 90.439L161.564 86.2141C161.471 86.0576 161.397 85.9273 161.313 85.7653C160.94 85.039 160.654 84.253 160.515 83.4675C160.437 83.0292 160.414 82.587 160.431 82.1588C160.445 81.8132 160.481 81.4764 160.58 81.1606C161.086 82.2828 161.577 83.4841 162.322 84.5274H162.338C168.672 89.2219 168.878 71.4711 168.878 71.4711L156.605 70.0327Z" fill="#B97A59"/>
<path d="M152.725 85.3335C152.725 85.3335 160.691 89.8226 162.734 92.889C164.777 95.9555 165.188 101.045 164.982 104.317C164.777 107.589 163.652 108.711 162.639 110.956C161.609 113.201 160.089 124.518 160.089 124.518C160.089 124.518 141.385 122.985 140.562 122.779C139.738 122.574 146.089 103.195 145.265 97.6784C144.442 92.1619 152.725 85.3335 152.725 85.3335Z" fill="#FDB32A"/>
<path d="M76.9917 137.258C89.0754 137.321 98.2451 126.241 114.193 120.93C125.849 117.057 134.29 116.251 146.485 117.658C149.177 117.958 151.806 118.417 154.467 118.907C156.589 119.302 158.695 119.729 160.786 120.203C161.625 120.393 162.575 120.898 163.193 120.345C164.745 118.986 164.428 115.919 164.207 114.117C163.89 111.525 162.829 109.723 160.469 108.427C157.333 106.704 153.532 106.135 150.016 105.961C126.419 104.791 111.548 107.257 75.7723 126.241C73.8085 127.268 76.3741 137.258 76.9917 137.258Z" fill="#347AF0"/>
<path d="M144.948 117.168C144.948 118.195 144.743 118.195 144.743 118.796C144.743 119.413 144.743 120.013 144.125 120.424C143.507 120.835 142.7 121.641 142.082 121.452C141.623 121.294 139.184 119.333 137.996 118.369C137.727 118.148 137.537 117.99 137.426 117.911C137.378 117.863 137.347 117.848 137.347 117.848C133.831 114.844 119.91 103.179 121.415 99.2117C123.046 94.9281 143.286 89.2219 143.286 89.2219L145.123 95.5446C145.123 95.5446 129.586 99.8281 127.955 100.856C126.356 101.851 139.437 114.386 140.181 115.097C141.243 115.018 144.172 114.829 144.505 115.334C144.917 115.951 143.887 115.951 143.887 115.951C143.887 115.951 144.948 116.141 144.948 117.168Z" fill="#B97A59"/>
<path d="M138.012 118.37C137.885 118.275 137.695 118.117 137.442 117.911C137.553 117.99 137.758 118.148 138.012 118.37Z" fill="#FFE3CA"/>
<path d="M142.098 89.0008L143.523 97.7734C143.523 97.7734 153.564 97.0305 152.519 90.0282C151.901 85.9501 142.098 89.0008 142.098 89.0008Z" fill="#FDB32A"/>
<path d="M185.808 91.356C185.745 91.4982 185.666 91.7037 185.555 91.9566C185.602 91.8143 185.681 91.6089 185.792 91.356H185.808Z" fill="#FFE3CA"/>
<path d="M185.507 92.0986C185.491 92.1144 185.491 92.1302 185.491 92.1302C185.491 92.1144 185.491 92.1144 185.507 92.0986Z" fill="#FFE3CA"/>
<path d="M159.265 76.9718L160.089 76.7663C160.089 76.7663 160.912 75.7389 161.118 74.7272C161.118 74.7272 167.247 75.9285 168.878 73.4943C170.509 71.0601 170.509 67.5985 167.849 66.982C165.188 66.3656 163.351 68.1991 161.308 67.1875C159.265 66.1601 157.428 64.7375 154.15 67.1875C150.871 69.6375 152.107 71.0601 147.403 70.4595C142.7 69.8588 138.709 67.7091 135.335 70.254C133.498 71.645 132.263 74.5376 128.589 73.7156C124.915 72.8937 120.829 76.5766 119.593 80.2437C118.374 83.9109 111.516 80.5441 111.516 88.0996C111.516 90.36 119.277 97.6942 128.684 92.9997C138.091 88.3051 138.091 89.9332 140.752 90.1387C143.412 90.3442 149.541 90.7551 151.79 88.9216C154.039 87.088 158.03 79.8486 158.03 78.8211C158.03 78.8211 155.987 76.1656 157.206 75.7547C158.442 75.3437 159.265 76.9718 159.265 76.9718Z" fill="#0B4870"/>
</svg>
