<svg width="42" height="39" viewBox="0 0 42 39" fill="none" xmlns="http://www.w3.org/2000/svg">
<g filter="url(#filter0_d_161_8938)">
<path fill-rule="evenodd" clip-rule="evenodd" d="M37.9967 4.87627V4.12143L9.3347 18.3944C9.19082 17.2951 9.19986 16.2285 9.36553 15.1673C9.67823 13.1602 10.4641 11.3441 11.7735 9.76292C14.0086 7.06395 16.9138 5.60091 20.4643 5.40882C22.6412 5.29173 24.6974 5.76492 26.615 6.78564C26.7203 6.84112 26.7997 6.83764 26.9028 6.78564C27.4695 6.49972 28.0376 6.21688 28.6058 5.93404C28.8308 5.82203 29.0558 5.71003 29.2807 5.59783C29.3127 5.58188 29.3438 5.56414 29.3782 5.5445C29.3963 5.5342 29.4153 5.52338 29.4358 5.51202C29.4158 5.49756 29.3976 5.4841 29.3803 5.4714C29.345 5.44535 29.314 5.42255 29.2822 5.40107C25.8262 3.08213 22.0517 2.33387 17.9586 3.15632C15.44 3.6624 13.2341 4.80329 11.3307 6.48983C9.77292 7.8735 8.58213 9.51022 7.75831 11.4C7.12921 12.8437 6.74348 14.3493 6.66208 15.9181C6.63567 16.4255 6.64465 16.9346 6.65362 17.4437C6.65717 17.645 6.66072 17.8464 6.66208 18.0476C6.67095 19.1338 6.18604 19.9333 5.20738 20.4462C4.85878 20.629 4.50606 20.8035 4.14979 20.9726C4.04112 21.0241 3.99906 21.082 4.00002 21.2035C4.00469 21.8601 4.00426 22.5167 4.00383 23.1732C4.0037 23.3638 4.00358 23.5544 4.00358 23.745C4.00358 23.777 4.00604 23.8089 4.00886 23.8453C4.0103 23.864 4.01183 23.8838 4.01317 23.9054C4.04079 23.8923 4.06577 23.8808 4.0891 23.87C4.12328 23.8543 4.15391 23.8401 4.18405 23.8252C6.17472 22.8343 8.16529 21.8433 10.1558 20.8521L30.9262 10.51C33.2264 9.36114 35.5285 8.21601 37.8325 7.07464C37.9613 7.01088 38.0015 6.9399 38 6.80369C37.9946 6.32912 37.9954 5.85456 37.9961 5.37994C37.9964 5.21206 37.9967 5.04417 37.9967 4.87627ZM37.997 11.8322V9.86504C37.9726 9.87668 37.9508 9.88698 37.9308 9.89637C37.8845 9.91827 37.8484 9.93531 37.8131 9.95326L20.7953 18.4247C15.2651 21.1806 9.73317 23.933 4.19956 26.682C4.04719 26.7577 3.99814 26.8399 4.00005 27.0047C4.00744 27.6051 4.00638 28.2055 4.00532 28.8061C4.00495 29.0187 4.00458 29.2312 4.00458 29.4438V29.6522L32.6525 15.3884C32.657 15.4002 32.6611 15.4096 32.6646 15.4175C32.6706 15.4314 32.6746 15.4408 32.6758 15.4504C32.8228 16.6558 32.7927 17.8559 32.559 19.0486C32.1634 21.0681 31.2859 22.8658 29.8947 24.4111C27.6853 26.8652 24.897 28.1929 21.5564 28.3735C19.367 28.4918 17.3 28.0185 15.3719 26.9915C15.2764 26.9407 15.2035 26.9327 15.1013 26.9844C14.5285 27.2743 13.9536 27.5602 13.3787 27.8461C13.1551 27.9573 12.9315 28.0685 12.708 28.18C12.6763 28.1957 12.6458 28.2135 12.6111 28.2338C12.5937 28.244 12.5752 28.2548 12.5549 28.2663C13.2427 28.7593 13.9759 29.1889 14.745 29.5498C17.4412 30.8055 20.2651 31.2155 23.2168 30.7796C25.3528 30.4641 27.3124 29.7002 29.0922 28.5105C31.1907 27.108 32.8002 25.2935 33.9205 23.0669C34.675 21.5627 35.1378 19.977 35.3091 18.3096C35.3966 17.4584 35.3742 16.6077 35.3435 15.7546C35.3036 14.6402 35.8186 13.8255 36.8279 13.3084C37.1732 13.1311 37.5209 12.9587 37.8711 12.7914C37.9684 12.745 38.0034 12.6887 37.9997 12.5826C37.9936 12.4049 37.9948 12.2269 37.996 12.0489C37.9965 11.9766 37.997 11.9044 37.997 11.8322Z" fill="#0D1F3C"/>
<mask id="mask0_161_8938" style="mask-type:alpha" maskUnits="userSpaceOnUse" x="3" y="2" width="36" height="30">
<path fill-rule="evenodd" clip-rule="evenodd" d="M37.9967 4.87627V4.12143L9.33473 18.3944C9.19085 17.2951 9.1999 16.2285 9.36556 15.1673C9.67827 13.1602 10.4641 11.3441 11.7736 9.76292C14.0087 7.06395 16.9138 5.60091 20.4644 5.40882C22.6412 5.29173 24.6975 5.76492 26.6151 6.78564C26.7203 6.84112 26.7998 6.83764 26.9028 6.78564C27.4695 6.49972 28.0377 6.21688 28.6058 5.93404C28.8308 5.82203 29.0558 5.71003 29.2807 5.59783C29.3127 5.58188 29.3438 5.56414 29.3783 5.5445C29.3963 5.5342 29.4153 5.52338 29.4358 5.51202C29.4159 5.49756 29.3976 5.4841 29.3804 5.4714C29.345 5.44535 29.3141 5.42255 29.2822 5.40107C25.8262 3.08213 22.0517 2.33387 17.9587 3.15632C15.4401 3.6624 13.2342 4.80329 11.3307 6.48983C9.77295 7.8735 8.58217 9.51022 7.75835 11.4C7.12925 12.8437 6.74351 14.3493 6.66212 15.9181C6.6357 16.4255 6.64468 16.9346 6.65366 17.4437C6.65721 17.645 6.66076 17.8464 6.66212 18.0476C6.67098 19.1338 6.18608 19.9333 5.20742 20.4462C4.85881 20.629 4.5061 20.8035 4.14982 20.9726C4.04116 21.0241 3.99909 21.082 4.00005 21.2035C4.00472 21.8601 4.00429 22.5167 4.00386 23.1732C4.00374 23.3638 4.00361 23.5544 4.00361 23.745C4.00361 23.777 4.00608 23.8089 4.00889 23.8453C4.01033 23.864 4.01186 23.8838 4.01321 23.9054C4.04083 23.8923 4.06581 23.8808 4.08913 23.87C4.12332 23.8543 4.15394 23.8401 4.18408 23.8252C6.17476 22.8343 8.16533 21.8433 10.1558 20.8521L30.9263 10.51C33.2264 9.36114 35.5285 8.21601 37.8325 7.07464C37.9614 7.01088 38.0015 6.9399 38 6.80369C37.9946 6.32912 37.9954 5.85456 37.9962 5.37994C37.9964 5.21206 37.9967 5.04417 37.9967 4.87627ZM37.997 11.8322V9.86504C37.9726 9.87668 37.9508 9.88698 37.9309 9.89637C37.8845 9.91827 37.8484 9.93531 37.8131 9.95326L20.7954 18.4247C15.2651 21.1806 9.73321 23.933 4.1996 26.682C4.04723 26.7577 3.99817 26.8399 4.00009 27.0047C4.00748 27.6051 4.00642 28.2055 4.00536 28.8061C4.00499 29.0187 4.00461 29.2312 4.00461 29.4438V29.6522L32.6525 15.3884C32.6571 15.4002 32.6612 15.4096 32.6646 15.4175C32.6706 15.4314 32.6747 15.4408 32.6758 15.4504C32.8229 16.6558 32.7927 17.8559 32.5591 19.0486C32.1635 21.0681 31.286 22.8658 29.8948 24.4111C27.6854 26.8652 24.8971 28.1929 21.5564 28.3735C19.367 28.4918 17.3 28.0185 15.3719 26.9915C15.2764 26.9407 15.2035 26.9327 15.1013 26.9844C14.5285 27.2743 13.9536 27.5602 13.3788 27.8461C13.1551 27.9573 12.9315 28.0685 12.708 28.18C12.6764 28.1957 12.6459 28.2135 12.6111 28.2338C12.5937 28.244 12.5752 28.2548 12.555 28.2663C13.2428 28.7593 13.9759 29.1889 14.745 29.5498C17.4412 30.8055 20.2652 31.2155 23.2169 30.7796C25.3528 30.4641 27.3124 29.7002 29.0922 28.5105C31.1908 27.108 32.8002 25.2935 33.9205 23.0669C34.675 21.5627 35.1379 19.977 35.3092 18.3096C35.3966 17.4584 35.3742 16.6077 35.3435 15.7546C35.3037 14.6402 35.8186 13.8255 36.8279 13.3084C37.1732 13.1311 37.521 12.9587 37.8711 12.7914C37.9684 12.745 38.0035 12.6887 37.9998 12.5826C37.9936 12.4049 37.9948 12.2269 37.996 12.0489C37.9965 11.9766 37.997 11.9044 37.997 11.8322Z" fill="white"/>
<path d="M37.9967 4.12143H38.4967V3.31388L37.7738 3.67385L37.9967 4.12143ZM9.33473 18.3944L8.83896 18.4593L8.92996 19.1545L9.55761 18.842L9.33473 18.3944ZM9.36556 15.1673L9.85958 15.2444L9.8596 15.2442L9.36556 15.1673ZM11.7736 9.76292L12.1587 10.0818L12.1587 10.0818L11.7736 9.76292ZM20.4644 5.40882L20.4375 4.90954L20.4374 4.90955L20.4644 5.40882ZM26.6151 6.78564L26.3801 7.22701L26.3819 7.22794L26.6151 6.78564ZM26.9028 6.78564L27.1281 7.23204L27.1281 7.23204L26.9028 6.78564ZM28.6058 5.93404L28.8287 6.38164L28.8287 6.38164L28.6058 5.93404ZM29.2807 5.59783L29.0576 5.15039L29.0575 5.15042L29.2807 5.59783ZM29.3783 5.5445L29.1306 5.11013L29.1306 5.11014L29.3783 5.5445ZM29.4358 5.51202L29.6781 5.94938L30.3655 5.56858L29.7294 5.10725L29.4358 5.51202ZM29.3804 5.4714L29.677 5.06888L29.677 5.06888L29.3804 5.4714ZM29.2822 5.40107L29.5616 4.98641L29.5608 4.98588L29.2822 5.40107ZM17.9587 3.15632L17.8602 2.66612L17.8602 2.66612L17.9587 3.15632ZM11.3307 6.48983L10.9991 6.11559L10.9986 6.116L11.3307 6.48983ZM7.75835 11.4L7.30001 11.2002L7.29998 11.2003L7.75835 11.4ZM6.66212 15.9181L7.16144 15.9441L7.16145 15.944L6.66212 15.9181ZM6.65366 17.4437L6.15373 17.4525L6.15373 17.4525L6.65366 17.4437ZM6.66212 18.0476L6.16213 18.051L6.16213 18.0517L6.66212 18.0476ZM5.20742 20.4462L4.9753 20.0034L4.97528 20.0034L5.20742 20.4462ZM4.14982 20.9726L4.36384 21.4245L4.36421 21.4243L4.14982 20.9726ZM4.00005 21.2035L4.50004 21.1999L4.50004 21.1995L4.00005 21.2035ZM4.00386 23.1732L3.50386 23.1729L4.00386 23.1732ZM4.00889 23.8453L4.50741 23.8068L4.50741 23.8068L4.00889 23.8453ZM4.01321 23.9054L3.51417 23.9364L3.55989 24.6731L4.22709 24.3573L4.01321 23.9054ZM4.08913 23.87L4.29864 24.324L4.29865 24.324L4.08913 23.87ZM4.18408 23.8252L4.40604 24.2732L4.40688 24.2728L4.18408 23.8252ZM10.1558 20.8521L9.93295 20.4045L9.93293 20.4045L10.1558 20.8521ZM30.9263 10.51L31.1491 10.9576L31.1497 10.9573L30.9263 10.51ZM37.8325 7.07464L37.6107 6.62653L37.6106 6.6266L37.8325 7.07464ZM38 6.80369L38.5 6.79816L38.5 6.79804L38 6.80369ZM37.9962 5.37994L38.4962 5.38075L38.4962 5.38075L37.9962 5.37994ZM37.997 9.86504H38.497V9.07302L37.782 9.41364L37.997 9.86504ZM37.9309 9.89637L37.7174 9.44424L37.7174 9.44424L37.9309 9.89637ZM37.8131 9.95326L38.036 10.4009L38.0399 10.3989L37.8131 9.95326ZM20.7954 18.4247L20.5725 17.9771L20.5723 17.9772L20.7954 18.4247ZM4.1996 26.682L4.42196 27.1299L4.42205 27.1298L4.1996 26.682ZM4.00009 27.0047L3.50012 27.0105L3.50013 27.0109L4.00009 27.0047ZM4.00536 28.8061L4.50536 28.807L4.00536 28.8061ZM4.00461 29.6522H3.50461V30.4597L4.22747 30.0998L4.00461 29.6522ZM32.6525 15.3884L33.1189 15.2081L32.921 14.6961L32.4297 14.9408L32.6525 15.3884ZM32.6646 15.4175L32.2058 15.6164L32.2059 15.6164L32.6646 15.4175ZM32.6758 15.4504L32.1793 15.509L32.1795 15.5109L32.6758 15.4504ZM32.5591 19.0486L33.0498 19.1447L33.0498 19.1447L32.5591 19.0486ZM29.8948 24.4111L29.5232 24.0765L29.5232 24.0765L29.8948 24.4111ZM21.5564 28.3735L21.5834 28.8728L21.5834 28.8728L21.5564 28.3735ZM15.3719 26.9915L15.607 26.5502L15.6067 26.55L15.3719 26.9915ZM15.1013 26.9844L14.8756 26.5382L14.8755 26.5383L15.1013 26.9844ZM13.3788 27.8461L13.6014 28.2938L13.6014 28.2938L13.3788 27.8461ZM12.708 28.18L12.9309 28.6275L12.9311 28.6274L12.708 28.18ZM12.6111 28.2338L12.8634 28.6655L12.8634 28.6655L12.6111 28.2338ZM12.555 28.2663L12.3083 27.8314L11.6281 28.2172L12.2637 28.6727L12.555 28.2663ZM14.745 29.5498L14.5326 30.0025L14.5339 30.0031L14.745 29.5498ZM23.2169 30.7796L23.2899 31.2742L23.2899 31.2742L23.2169 30.7796ZM29.0922 28.5105L28.8144 28.0948L28.8143 28.0948L29.0922 28.5105ZM33.9205 23.0669L34.3672 23.2916L34.3675 23.291L33.9205 23.0669ZM35.3092 18.3096L35.8065 18.3607L35.8065 18.3607L35.3092 18.3096ZM35.3435 15.7546L34.8439 15.7725L34.8439 15.7726L35.3435 15.7546ZM36.8279 13.3084L37.0559 13.7534L37.0564 13.7532L36.8279 13.3084ZM37.8711 12.7914L37.6559 12.3401L37.6555 12.3403L37.8711 12.7914ZM37.9998 12.5826L37.5001 12.5999L37.5001 12.6L37.9998 12.5826ZM37.996 12.0489L37.4961 12.0455L37.4961 12.0455L37.996 12.0489ZM37.4967 4.12143V4.87627H38.4967V4.12143H37.4967ZM9.55761 18.842L38.2196 4.569L37.7738 3.67385L9.11185 17.9468L9.55761 18.842ZM8.87155 15.0901C8.69823 16.2004 8.68918 17.3148 8.83896 18.4593L9.8305 18.3295C9.69253 17.2753 9.70157 16.2566 9.85958 15.2444L8.87155 15.0901ZM11.3885 9.44401C10.0187 11.0981 9.19737 12.9988 8.87152 15.0903L9.8596 15.2442C10.1592 13.3215 10.9096 11.5902 12.1587 10.0818L11.3885 9.44401ZM20.4374 4.90955C16.7487 5.10911 13.7133 6.63669 11.3885 9.44401L12.1587 10.0818C14.304 7.4912 17.0789 6.09271 20.4914 5.90809L20.4374 4.90955ZM26.85 6.34428C24.8545 5.28209 22.708 4.78741 20.4375 4.90954L20.4912 5.9081C22.5744 5.79604 24.5404 6.24775 26.3801 7.22701L26.85 6.34428ZM26.6776 6.33924C26.6671 6.34454 26.6986 6.3265 26.755 6.32597C26.8141 6.32541 26.85 6.34424 26.8483 6.34334L26.3819 7.22794C26.4854 7.28252 26.6137 7.32735 26.7645 7.32592C26.9127 7.32452 27.0355 7.27875 27.1281 7.23204L26.6776 6.33924ZM28.383 5.48643C27.815 5.76918 27.2457 6.05262 26.6776 6.33925L27.1281 7.23204C27.6933 6.94682 28.2603 6.66458 28.8287 6.38164L28.383 5.48643ZM29.0575 5.15042C28.8328 5.26251 28.608 5.37442 28.383 5.48643L28.8287 6.38164C29.0536 6.26965 29.2788 6.15756 29.5039 6.04525L29.0575 5.15042ZM29.1306 5.11014C29.0938 5.1311 29.0749 5.14172 29.0576 5.15039L29.5038 6.04528C29.5504 6.02203 29.5938 5.99717 29.6259 5.97886L29.1306 5.11014ZM29.1935 5.07465C29.1699 5.08771 29.1484 5.09998 29.1306 5.11013L29.6259 5.97887C29.6442 5.96842 29.6607 5.95905 29.6781 5.94938L29.1935 5.07465ZM29.0838 5.87391C29.1009 5.88652 29.1206 5.90105 29.1423 5.91678L29.7294 5.10725C29.7112 5.09407 29.6943 5.08167 29.677 5.06888L29.0838 5.87391ZM29.0028 5.81572C29.0244 5.83027 29.0467 5.84662 29.0838 5.87392L29.677 5.06888C29.6433 5.04409 29.6038 5.01483 29.5616 4.98641L29.0028 5.81572ZM18.0572 3.64652C22.02 2.85024 25.6587 3.57185 29.0036 5.81626L29.5608 4.98588C25.9938 2.59241 22.0834 1.81751 17.8602 2.66612L18.0572 3.64652ZM11.6623 6.86406C13.5034 5.23276 15.6299 4.13424 18.0572 3.64652L17.8602 2.66612C15.2502 3.19056 12.9649 4.37382 10.9991 6.11559L11.6623 6.86406ZM8.21669 11.5998C9.01121 9.77724 10.1586 8.1997 11.6627 6.86365L10.9986 6.116C9.38728 7.54731 8.15313 9.24321 7.30001 11.2002L8.21669 11.5998ZM7.16145 15.944C7.2394 14.4416 7.60886 12.9947 8.21672 11.5997L7.29998 11.2003C6.64964 12.6927 6.24763 14.257 6.16279 15.8922L7.16145 15.944ZM7.15358 17.4349C7.14455 16.9228 7.13609 16.4312 7.16144 15.9441L6.16279 15.8921C6.13532 16.4198 6.14481 16.9464 6.15373 17.4525L7.15358 17.4349ZM7.16211 18.0443C7.16072 17.8398 7.15712 17.6358 7.15358 17.4349L6.15373 17.4525C6.15729 17.6543 6.16079 17.8529 6.16213 18.051L7.16211 18.0443ZM5.43953 20.8891C5.9947 20.5981 6.43498 20.2119 6.73261 19.7212C7.03053 19.2299 7.16717 18.6642 7.1621 18.0436L6.16213 18.0517C6.16593 18.5172 6.06455 18.8943 5.87757 19.2026C5.69029 19.5114 5.39879 19.7814 4.9753 20.0034L5.43953 20.8891ZM4.36421 21.4243C4.7254 21.2529 5.08413 21.0754 5.43955 20.8891L4.97528 20.0034C4.63349 20.1825 4.2868 20.3542 3.93544 20.5209L4.36421 21.4243ZM4.50004 21.1995C4.5 21.1949 4.50158 21.2613 4.45029 21.3385C4.40209 21.411 4.34652 21.4327 4.36384 21.4245L3.93581 20.5208C3.84447 20.564 3.71353 20.6404 3.61737 20.7851C3.51812 20.9345 3.49915 21.0906 3.50007 21.2074L4.50004 21.1995ZM4.50386 23.1735C4.50429 22.5173 4.50473 21.8588 4.50004 21.1999L3.50006 21.207C3.50472 21.8614 3.50429 22.516 3.50386 23.1729L4.50386 23.1735ZM4.50361 23.745C4.50361 23.5546 4.50374 23.3642 4.50386 23.1735L3.50386 23.1729C3.50374 23.3635 3.50361 23.5542 3.50361 23.745H4.50361ZM4.50741 23.8068C4.50429 23.7665 4.50361 23.7543 4.50361 23.745H3.50361C3.50361 23.7997 3.50786 23.8513 3.51038 23.8839L4.50741 23.8068ZM4.51225 23.8744C4.51064 23.8485 4.50882 23.8251 4.50741 23.8068L3.51038 23.8839C3.51184 23.9028 3.51309 23.919 3.51417 23.9364L4.51225 23.8744ZM3.87963 23.416C3.85647 23.4267 3.82942 23.4392 3.79932 23.4535L4.22709 24.3573C4.25223 24.3454 4.27515 24.3349 4.29864 24.324L3.87963 23.416ZM3.96213 23.3772C3.93926 23.3885 3.91505 23.3997 3.87962 23.4161L4.29865 24.324C4.33159 24.3088 4.36862 24.2918 4.40604 24.2732L3.96213 23.3772ZM9.93293 20.4045C7.94247 21.3957 5.95193 22.3867 3.96128 23.3776L4.40688 24.2728C6.39759 23.2819 8.38818 22.2909 10.3787 21.2996L9.93293 20.4045ZM30.7034 10.0624L9.93295 20.4045L10.3787 21.2997L31.1491 10.9576L30.7034 10.0624ZM37.6106 6.6266C35.3061 7.76822 33.0035 8.91359 30.7029 10.0627L31.1497 10.9573C33.4494 9.80869 35.751 8.66381 38.0545 7.52268L37.6106 6.6266ZM37.5 6.80922C37.5003 6.83207 37.4952 6.77695 37.5377 6.70684C37.5805 6.63644 37.6315 6.61627 37.6107 6.62653L38.0544 7.52275C38.1624 7.46926 38.2979 7.38171 38.3925 7.22582C38.487 7.07024 38.5012 6.91152 38.5 6.79816L37.5 6.80922ZM37.4962 5.37913C37.4954 5.85321 37.4946 6.33101 37.5 6.80934L38.5 6.79804C38.4946 6.32724 38.4954 5.85591 38.4962 5.38075L37.4962 5.37913ZM37.4967 4.87627C37.4967 5.0437 37.4964 5.21119 37.4962 5.37913L38.4962 5.38075C38.4964 5.21293 38.4967 5.04464 38.4967 4.87627H37.4967ZM37.497 9.86504V11.8322H38.497V9.86504H37.497ZM38.1444 10.3485C38.1642 10.3391 38.1867 10.3285 38.2121 10.3164L37.782 9.41364C37.7584 9.42486 37.7374 9.43481 37.7174 9.44424L38.1444 10.3485ZM38.0399 10.3989C38.0674 10.3849 38.0964 10.3712 38.1444 10.3485L37.7174 9.44424C37.6726 9.46537 37.6295 9.4857 37.5864 9.50765L38.0399 10.3989ZM21.0182 18.8723L38.036 10.4009L37.5903 9.50566L20.5725 17.9771L21.0182 18.8723ZM4.42205 27.1298C9.95584 24.3807 15.488 21.6282 21.0184 18.8722L20.5723 17.9772C15.0423 20.733 9.51057 23.4853 3.97714 26.2342L4.42205 27.1298ZM4.50006 26.9989C4.49963 26.9622 4.50679 27.0085 4.4681 27.0715C4.42977 27.134 4.38651 27.1475 4.42196 27.1299L3.97723 26.2342C3.86032 26.2923 3.71634 26.3847 3.61587 26.5483C3.51504 26.7126 3.49863 26.8824 3.50012 27.0105L4.50006 26.9989ZM4.50536 28.807C4.50642 28.207 4.50749 27.603 4.50005 26.9986L3.50013 27.0109C3.50746 27.6071 3.50642 28.2041 3.50536 28.8052L4.50536 28.807ZM4.50461 29.4438C4.50461 29.2318 4.50499 29.0196 4.50536 28.807L3.50536 28.8052C3.50499 29.0177 3.50461 29.2307 3.50461 29.4438H4.50461ZM4.50461 29.6522V29.4438H3.50461V29.6522H4.50461ZM32.4297 14.9408L3.78176 29.2046L4.22747 30.0998L32.8754 15.836L32.4297 14.9408ZM33.1233 15.2186C33.12 15.211 33.1195 15.2097 33.1189 15.2081L32.1861 15.5686C32.1947 15.5907 32.2023 15.6081 32.2058 15.6164L33.1233 15.2186ZM33.1724 15.3918C33.1658 15.3362 33.152 15.2924 33.1423 15.2656C33.134 15.2426 33.1245 15.2212 33.1233 15.2186L32.2059 15.6164C32.2077 15.6206 32.2077 15.6206 32.2074 15.6199C32.2069 15.6189 32.2047 15.6134 32.2018 15.6055C32.1959 15.5893 32.1847 15.5549 32.1793 15.509L33.1724 15.3918ZM33.0498 19.1447C33.2942 17.8969 33.3251 16.6438 33.1721 15.3898L32.1795 15.5109C32.3206 16.6679 32.2912 17.815 32.0684 18.9525L33.0498 19.1447ZM30.2663 24.7456C31.7199 23.1312 32.6373 21.2503 33.0498 19.1447L32.0684 18.9524C31.6897 20.8858 30.8521 22.6005 29.5232 24.0765L30.2663 24.7456ZM21.5834 28.8728C25.0547 28.6851 27.9674 27.2992 30.2664 24.7456L29.5232 24.0765C27.4033 26.4312 24.7394 27.7007 21.5294 27.8742L21.5834 28.8728ZM15.1369 27.4328C17.1432 28.5015 19.3006 28.9961 21.5834 28.8728L21.5294 27.8742C19.4334 27.9875 17.4567 27.5355 15.607 26.5502L15.1369 27.4328ZM15.327 27.4305C15.3244 27.4319 15.2824 27.4519 15.2172 27.449C15.1569 27.4464 15.1238 27.4258 15.1371 27.4329L15.6067 26.55C15.5246 26.5063 15.4072 26.4564 15.2611 26.45C15.1099 26.4433 14.9804 26.4852 14.8756 26.5382L15.327 27.4305ZM13.6014 28.2938C14.176 28.008 14.7525 27.7213 15.3271 27.4305L14.8755 26.5383C14.3046 26.8272 13.7312 27.1124 13.1561 27.3984L13.6014 28.2938ZM12.9311 28.6274C13.1544 28.5161 13.3777 28.405 13.6014 28.2938L13.1561 27.3984C12.9325 27.5096 12.7087 27.6209 12.4849 27.7325L12.9311 28.6274ZM12.8634 28.6655C12.901 28.6435 12.9168 28.6345 12.9309 28.6275L12.4852 27.7324C12.4359 27.7569 12.3907 27.7835 12.3589 27.8021L12.8634 28.6655ZM12.8016 28.7012C12.8251 28.6879 12.8462 28.6756 12.8634 28.6655L12.3589 27.8021C12.3412 27.8124 12.3253 27.8217 12.3083 27.8314L12.8016 28.7012ZM14.9574 29.0972C14.2159 28.7492 13.5091 28.335 12.8462 27.8599L12.2637 28.6727C12.9764 29.1835 13.736 29.6287 14.5326 30.0025L14.9574 29.0972ZM23.1438 30.285C20.2885 30.7066 17.5634 30.3109 14.9561 29.0966L14.5339 30.0031C17.3191 31.3002 20.2418 31.7243 23.2899 31.2742L23.1438 30.285ZM28.8143 28.0948C27.0953 29.2439 25.2055 29.9805 23.1438 30.285L23.2899 31.2742C25.5001 30.9478 27.5295 30.1565 29.3701 28.9262L28.8143 28.0948ZM33.4739 22.8421C32.3929 24.9906 30.8421 26.7397 28.8144 28.0948L29.37 28.9262C31.5395 27.4764 33.2075 25.5964 34.3672 23.2916L33.4739 22.8421ZM34.8118 18.2585C34.6467 19.8653 34.201 21.3925 33.4736 22.8427L34.3675 23.291C35.149 21.7329 35.629 20.0886 35.8065 18.3607L34.8118 18.2585ZM34.8439 15.7726C34.8746 16.6267 34.8953 17.4458 34.8118 18.2585L35.8065 18.3607C35.8979 17.4711 35.8739 16.5887 35.8432 15.7366L34.8439 15.7726ZM36.6 12.8634C36.0307 13.1551 35.5731 13.5454 35.266 14.0462C34.9579 14.5487 34.8209 15.1309 34.8439 15.7725L35.8432 15.7367C35.8263 15.2639 35.9269 14.8815 36.1186 14.5689C36.3114 14.2544 36.6159 13.9788 37.0559 13.7534L36.6 12.8634ZM37.6555 12.3403C37.3011 12.5097 36.9491 12.6841 36.5995 12.8637L37.0564 13.7532C37.3974 13.578 37.7409 13.4078 38.0867 13.2425L37.6555 12.3403ZM37.5001 12.6C37.5 12.5979 37.4976 12.5281 37.5479 12.4466C37.5718 12.408 37.5992 12.3806 37.6214 12.3629C37.632 12.3545 37.6408 12.3487 37.6466 12.3452C37.6523 12.3418 37.6558 12.3401 37.6559 12.3401L38.0863 13.2427C38.181 13.1976 38.3084 13.1184 38.3987 12.9722C38.49 12.8244 38.5032 12.6734 38.4995 12.5652L37.5001 12.6ZM37.4961 12.0455C37.4949 12.2217 37.4935 12.4101 37.5001 12.5999L38.4995 12.5653C38.4937 12.3997 38.4948 12.232 38.496 12.0523L37.4961 12.0455ZM37.497 11.8322C37.497 11.9024 37.4966 11.9729 37.4961 12.0455L38.496 12.0523C38.4965 11.9803 38.497 11.9064 38.497 11.8322H37.497Z" fill="white"/>
</mask>
<g mask="url(#mask0_161_8938)">
</g>
</g>
<defs>
<filter id="filter0_d_161_8938" x="0" y="0" width="42" height="42" filterUnits="userSpaceOnUse" color-interpolation-filters="sRGB">
<feFlood flood-opacity="0" result="BackgroundImageFix"/>
<feColorMatrix in="SourceAlpha" type="matrix" values="0 0 0 0 0 0 0 0 0 0 0 0 0 0 0 0 0 0 127 0" result="hardAlpha"/>
<feOffset dy="4"/>
<feGaussianBlur stdDeviation="2"/>
<feComposite in2="hardAlpha" operator="out"/>
<feColorMatrix type="matrix" values="0 0 0 0 0 0 0 0 0 0 0 0 0 0 0 0 0 0 0.25 0"/>
<feBlend mode="normal" in2="BackgroundImageFix" result="effect1_dropShadow_161_8938"/>
<feBlend mode="normal" in="SourceGraphic" in2="effect1_dropShadow_161_8938" result="shape"/>
</filter>
</defs>
</svg>
