<svg width="275" height="228" viewBox="0 0 275 228" fill="none" xmlns="http://www.w3.org/2000/svg">
<path d="M159.319 30.2564C141.739 29.6453 124.997 23.9717 109.009 17.763C93.0221 11.5543 77.1867 4.67472 60.0287 1.38568C48.9928 -0.730062 36.3707 -1.02882 27.4807 4.88656C18.922 10.5901 16.1569 20.4083 14.6712 29.5286C13.5521 36.3891 12.8948 43.6109 15.9587 50.0314C18.0881 54.491 21.8636 58.2391 24.4766 62.5113C33.5676 77.3731 27.1412 95.7004 17.2923 110.212C12.6748 117.021 7.31035 123.52 3.74401 130.761C0.177668 138.002 -1.47105 146.31 1.64984 153.703C4.74085 161.036 12.1098 166.533 20.0927 170.403C36.3056 178.266 55.403 180.515 74.0387 181.789C115.278 184.61 156.735 183.388 198.084 182.166C213.387 181.712 228.755 181.253 243.808 178.888C252.168 177.573 260.798 175.49 266.868 170.455C274.571 164.064 276.481 153.244 271.317 145.229C262.658 131.788 238.723 128.45 232.663 114.025C229.333 106.084 232.753 97.2404 237.596 89.8747C247.983 74.0786 265.391 60.219 266.306 42.1632C266.936 29.7621 258.568 17.342 245.628 11.4728C232.066 5.32383 213.256 6.09517 203.255 16.2773C192.948 26.761 174.842 30.7942 159.319 30.2564Z" fill="#E0E9F8"/>
<path d="M131.568 223.059C177.146 223.059 214.095 218.101 214.095 211.985C214.095 205.87 177.146 200.912 131.568 200.912C85.99 200.912 49.0415 205.87 49.0415 211.985C49.0415 218.101 85.99 223.059 131.568 223.059Z" fill="#E0E9F8"/>
<rect x="174.545" y="79.0991" width="2.63664" height="19.5111" rx="1.31832" fill="#99B9EE"/>
<rect x="94.9189" y="63.2792" width="1.05465" height="6.32792" rx="0.527327" fill="#3A3768"/>
<rect x="94.9189" y="74.8804" width="1.05465" height="11.0739" rx="0.527327" fill="#3A3768"/>
<rect x="94.9189" y="90.1729" width="1.05465" height="11.6012" rx="0.527327" fill="#3A3768"/>
<rect x="94.9189" y="41.6588" width="80.681" height="162.944" rx="12" fill="#99B9EE"/>
<path d="M164.452 45.8774H155.205V46.9878C155.205 48.3837 154.65 49.7224 153.661 50.7092C152.672 51.696 151.33 52.25 149.932 52.2493H120.524C119.126 52.25 117.785 51.696 116.796 50.7092C115.807 49.7224 115.251 48.3837 115.251 46.9878V45.8774H106.594C103.059 45.8774 100.192 48.7387 100.192 52.2683V194.521C100.192 196.216 100.867 197.841 102.067 199.04C103.268 200.238 104.896 200.912 106.594 200.912H164.452C167.988 200.912 170.854 198.05 170.854 194.521V52.2792C170.857 50.5823 170.184 48.954 168.983 47.7531C167.782 46.5523 166.152 45.8774 164.452 45.8774Z" fill="#F7F7F7"/>
<rect x="127.613" y="46.4048" width="11.0739" height="2.63664" rx="1.31832" fill="#E6E8EC"/>
<path d="M141.587 49.0414C142.315 49.0414 142.906 48.4512 142.906 47.7231C142.906 46.995 142.315 46.4048 141.587 46.4048C140.859 46.4048 140.269 46.995 140.269 47.7231C140.269 48.4512 140.859 49.0414 141.587 49.0414Z" fill="#E6E8EC"/>
<path d="M203.65 34.3063C203.65 34.3063 181.067 32.9125 183.728 49.1005C183.728 49.1005 183.191 51.9622 185.734 53.26C185.734 53.26 185.774 52.061 188.051 52.4698C188.862 52.6073 189.685 52.6478 190.505 52.5905C191.611 52.5162 192.663 52.0761 193.504 51.3367V51.3367C193.504 51.3367 199.852 48.6533 202.319 38.0405C202.319 38.0405 204.146 35.7248 204.073 35.1294L200.262 36.7949C200.262 36.7949 201.566 39.6072 200.53 41.9449C200.53 41.9449 200.407 36.8964 199.675 37.0062C199.527 37.0281 197.696 37.9802 197.696 37.9802C197.696 37.9802 199.935 42.8777 198.245 46.4391C198.245 46.4391 198.886 40.4029 196.996 38.3341L194.314 39.9365C194.314 39.9365 196.931 44.9959 195.156 49.1252C195.156 49.1252 195.612 42.7927 193.748 40.3261L191.318 42.2659C191.318 42.2659 193.777 47.2512 192.278 50.6754C192.278 50.6754 192.082 43.3058 190.792 42.7488C190.792 42.7488 188.665 44.6694 188.341 45.4541C188.341 45.4541 190.025 49.0758 188.979 50.9855C188.979 50.9855 188.338 46.0742 187.812 46.0468C187.812 46.0468 185.694 49.3008 185.474 51.5342C185.474 51.5342 185.565 48.217 187.3 45.7395C187.3 45.7395 185.251 46.0989 184.055 47.457C184.055 47.457 184.385 45.1578 187.823 44.9547C187.823 44.9547 189.574 42.4854 190.041 42.3372C190.041 42.3372 186.624 42.0436 184.551 42.9847C184.551 42.9847 186.375 40.8145 190.669 41.8022L193.069 39.7965C193.069 39.7965 188.569 39.1682 186.659 39.8624C186.659 39.8624 188.856 37.9418 193.715 39.3411L196.328 37.7442C196.328 37.7442 192.49 36.8992 190.205 37.1955C190.205 37.1955 192.619 35.8648 197.095 37.308L198.972 36.4492C198.972 36.4492 196.161 35.884 195.338 35.7934C194.515 35.7029 194.472 35.4724 194.472 35.4724C196.253 35.1686 198.081 35.3767 199.753 36.0733C199.753 36.0733 203.717 34.5615 203.65 34.3063Z" fill="#99B9EE"/>
<path d="M180.148 26.907C180.148 26.907 169.736 26.2891 170.953 33.4826C170.953 33.4826 170.709 34.7535 171.879 35.3309C171.879 35.3309 171.898 34.7913 172.95 34.9774C173.324 35.0394 173.704 35.0575 174.082 35.0314C174.593 34.9981 175.079 34.801 175.465 34.4702V34.4702C175.465 34.4702 178.397 33.2775 179.537 28.561C179.537 28.561 180.378 27.533 180.345 27.2685L178.586 28.0078C178.586 28.0078 179.186 29.2571 178.715 30.296C178.715 30.296 178.657 28.0537 178.32 28.105C178.252 28.105 177.405 28.5394 177.405 28.5394C177.405 28.5394 178.441 30.7169 177.66 32.2981C177.66 32.2981 177.956 29.616 177.082 28.6959L175.843 29.419C175.843 29.419 177.052 31.6667 176.232 33.5015C176.232 33.5015 176.443 30.6872 175.583 29.5917L174.463 30.4552C174.463 30.4552 175.597 32.6704 174.906 34.1922C174.906 34.1922 174.813 30.9166 174.219 30.6683C174.219 30.6683 173.238 31.521 173.087 31.8717C173.087 31.8717 173.865 33.4907 173.383 34.3299C173.383 34.3299 173.087 32.147 172.835 32.1362C172.835 32.1362 171.857 33.5824 171.756 34.5646C171.805 33.6488 172.095 32.7615 172.599 31.9905C172.035 32.0958 171.514 32.3612 171.101 32.7541C171.101 32.7541 171.254 31.7314 172.841 31.6424C172.841 31.6424 173.663 30.5442 173.865 30.4767C173.865 30.4767 172.287 30.3472 171.331 30.7655C171.331 30.7655 172.172 29.8022 174.153 30.2393L175.249 29.3489C175.249 29.3489 173.169 29.0791 172.29 29.3786C172.29 29.3786 173.304 28.5259 175.548 29.1465L176.753 28.4369C176.753 28.4369 174.98 28.0618 173.926 28.1967C173.926 28.1967 175.041 27.6058 177.106 28.2453L177.97 27.8648C177.97 27.8648 176.671 27.6139 176.29 27.5734C175.909 27.533 175.89 27.4304 175.89 27.4304C176.712 27.2957 177.557 27.3891 178.328 27.7002C178.328 27.7002 180.181 27.0203 180.148 26.907Z" fill="#99B9EE"/>
<path d="M234.66 210.931C238.738 210.931 242.043 210.341 242.043 209.613C242.043 208.884 238.738 208.294 234.66 208.294C230.583 208.294 227.278 208.884 227.278 209.613C227.278 210.341 230.583 210.931 234.66 210.931Z" fill="#E0E9F8"/>
<path d="M24.2571 220.95C28.3344 220.95 31.6397 220.36 31.6397 219.632C31.6397 218.904 28.3344 218.313 24.2571 218.313C20.1798 218.313 16.8745 218.904 16.8745 219.632C16.8745 220.36 20.1798 220.95 24.2571 220.95Z" fill="#E0E9F8"/>
<path d="M52.7327 227.805C56.81 227.805 60.1153 227.215 60.1153 226.487C60.1153 225.759 56.81 225.169 52.7327 225.169C48.6554 225.169 45.3501 225.759 45.3501 226.487C45.3501 227.215 48.6554 227.805 52.7327 227.805Z" fill="#E0E9F8"/>
<path d="M218.05 224.641C224.02 224.641 228.86 223.815 228.86 222.796C228.86 221.776 224.02 220.95 218.05 220.95C212.08 220.95 207.24 221.776 207.24 222.796C207.24 223.815 212.08 224.641 218.05 224.641Z" fill="#99B9EE"/>
<path d="M223.049 220.274C223.542 219.859 223.901 219.301 224.079 218.673C224.214 218.04 223.95 217.29 223.358 217.044C222.696 216.784 221.988 217.257 221.453 217.733C220.917 218.208 220.301 218.753 219.599 218.651C220.334 217.967 220.666 216.938 220.473 215.938C220.442 215.735 220.357 215.544 220.228 215.385C219.862 214.982 219.195 215.153 218.756 215.474C217.357 216.483 216.967 218.438 216.959 220.194C216.816 219.56 216.937 218.9 216.932 218.258C216.926 217.617 216.757 216.876 216.221 216.536C215.891 216.353 215.52 216.264 215.145 216.276C214.515 216.251 213.815 216.317 213.385 216.79C212.847 217.376 212.992 218.36 213.455 219.002C213.918 219.643 214.625 220.055 215.277 220.501C215.798 220.82 216.242 221.255 216.576 221.775C216.617 221.848 216.649 221.925 216.673 222.005H220.605C221.492 221.543 222.314 220.961 223.049 220.274V220.274Z" fill="#99B9EE"/>
<path d="M53.1068 196.166C53.1068 196.166 54.5852 198.198 52.4267 201.254C50.2682 204.31 48.4887 206.908 49.201 208.821C49.201 208.821 52.459 203.125 55.1148 203.046C57.7706 202.967 56.0233 199.592 53.1068 196.166Z" fill="#99B9EE"/>
<path opacity="0.1" d="M53.0651 196.166C53.1955 196.362 53.298 196.577 53.3696 196.804C55.9849 199.996 57.3796 202.977 54.8648 203.05C52.5241 203.121 49.7157 207.471 49.0415 208.57C49.0633 208.655 49.0904 208.737 49.1203 208.821C49.1203 208.821 52.4153 203.129 55.1014 203.05C57.7874 202.971 56.0148 199.59 53.0651 196.166Z" fill="black"/>
<path d="M56.4238 198.688C56.4238 199.334 56.3066 199.857 56.1601 199.857C56.0137 199.857 55.8965 199.334 55.8965 198.688C55.8965 198.043 56.043 198.346 56.1894 198.346C56.3359 198.346 56.4238 198.043 56.4238 198.688Z" fill="#FFD037"/>
<path d="M57.1036 199.335C56.4848 199.706 55.9441 199.93 55.8995 199.835C55.8549 199.74 56.3148 199.363 56.9335 198.992C57.5523 198.621 57.3098 198.891 57.3544 198.992C57.399 199.093 57.7223 198.964 57.1036 199.335Z" fill="#FFD037"/>
<path d="M45.5047 196.166C45.5047 196.166 44.0268 198.198 46.1845 201.254C48.3423 204.31 50.1212 206.908 49.4091 208.821C49.4091 208.821 46.155 203.125 43.4974 203.046C40.8398 202.967 42.5837 199.592 45.5047 196.166Z" fill="#99B9EE"/>
<path opacity="0.1" d="M45.5475 196.166C45.4167 196.362 45.3134 196.577 45.2404 196.804C42.6267 199.996 41.2356 202.977 43.7461 203.05C46.0881 203.121 48.8948 207.471 49.5686 208.57C49.5464 208.656 49.5191 208.739 49.4871 208.821C49.4871 208.821 46.1968 203.129 43.5097 203.05C40.8226 202.971 42.5941 199.59 45.5475 196.166Z" fill="#99B9EE"/>
<path d="M42.7134 198.688C42.7134 199.334 42.8338 199.857 42.9791 199.857C43.1244 199.857 43.2407 199.334 43.2407 198.688C43.2407 198.043 43.0954 198.346 42.9501 198.346C42.8047 198.346 42.7134 198.043 42.7134 198.688Z" fill="#FFD037"/>
<path d="M42.0353 199.335C42.653 199.706 43.1901 199.93 43.2374 199.835C43.2847 199.74 42.82 199.363 42.2022 198.992C41.5845 198.621 41.8293 198.891 41.782 198.992C41.7347 199.093 41.4175 198.964 42.0353 199.335Z" fill="#FFD037"/>
<path d="M43.2407 207.921C43.2407 207.921 47.3498 207.79 48.5911 206.893C49.8324 205.996 54.9126 204.92 55.2176 206.362C55.5225 207.804 61.3946 213.528 56.7558 213.566C52.117 213.604 45.9748 212.83 44.7388 212.064C43.5029 211.298 43.2407 207.921 43.2407 207.921Z" fill="#99B9EE"/>
<path opacity="0.2" d="M56.8386 213.056C52.1989 213.096 46.0556 212.3 44.8194 211.514C43.8802 210.911 43.5029 208.758 43.3772 207.767H43.2407C43.2407 207.767 43.5083 211.233 44.7364 212.023C45.9646 212.813 52.116 213.605 56.7557 213.566C58.0935 213.566 58.5564 213.056 58.5323 212.317C58.345 212.771 57.834 213.048 56.8386 213.056Z" fill="black"/>
<path d="M76.4624 120.426C76.6039 120.575 76.8183 120.605 76.9897 120.5C76.8116 120.503 76.634 120.478 76.4624 120.426V120.426Z" fill="url(#paint0_linear_0_6271)"/>
<path fill-rule="evenodd" clip-rule="evenodd" d="M108.918 66.8011C108.344 66.633 107.528 66.3591 106.54 66.0146C107.565 64.6803 108.314 63.1564 108.744 61.5314L108.66 61.564C108.673 61.5138 108.688 61.4643 108.702 61.4148C108.716 61.3653 108.73 61.3158 108.744 61.2656C106.856 62.0413 104.764 60.7232 103.433 59.039C102.856 58.3076 102.358 57.4984 101.86 56.6898L101.86 56.6897C101.212 55.6361 100.565 54.5834 99.7414 53.7042C99.1336 53.0887 98.4796 52.5202 97.7852 52.0037C97.3554 51.6674 96.8901 51.3175 96.365 51.3012C95.8652 51.2869 95.4285 51.5715 94.9868 51.8596C94.6783 52.0607 94.3674 52.2634 94.0307 52.3671C93.4907 52.4901 92.9278 52.4695 92.3983 52.3074C91.5897 52.1197 90.7922 51.8716 89.9956 51.6237C88.7095 51.2236 87.4255 50.8242 86.1 50.6801C84.9462 50.5354 83.7744 50.6684 82.6828 51.068C81.98 51.3377 81.5269 51.7782 81.0596 52.2324C80.8032 52.4816 80.5426 52.7349 80.2342 52.9665C79.4737 53.5389 78.106 53.6396 77.0211 53.7195C76.7592 53.7388 76.5138 53.7569 76.2974 53.7801C74.9484 53.9346 73.59 53.9917 72.2327 53.951C71.4523 53.8807 70.666 53.9098 69.8929 54.0378C68.2769 54.3958 66.9791 55.6922 65.7684 56.9398C65.4365 57.2247 65.1985 57.6028 65.0855 58.0246C65.0706 58.1435 65.0706 58.2638 65.0855 58.3826C65.073 58.7069 65.1286 59.0303 65.2488 59.3319C65.6146 60.4532 66.1366 61.5177 66.7995 62.4942C66.9048 62.6464 67.0135 62.7966 67.1224 62.9469L67.1225 62.9471C67.526 63.5041 67.9306 64.0627 68.1599 64.7291C68.2935 65.1457 68.3641 65.5799 68.3694 66.0173C68.3541 66.4821 68.3059 66.9452 68.2252 67.4032C68.0114 68.6661 67.6601 69.902 67.1777 71.089C67.1469 71.1649 67.1156 71.2408 67.0842 71.3167L67.0842 71.3168C66.8556 71.8703 66.6254 72.4279 66.5656 73.0336C66.5575 73.1709 66.5575 73.3086 66.5656 73.4459C66.5204 74.62 67.1498 75.6134 67.7901 76.6241C68.308 77.4414 68.8329 78.27 69.0142 79.2146C69.0463 79.3893 69.0663 79.566 69.074 79.7435C69.0278 81.0616 68.285 82.3499 67.1913 82.8597C67.2581 82.8864 67.3263 82.9103 67.3948 82.9344L67.3957 82.9348C67.4246 82.9449 67.4535 82.9551 67.4824 82.9655C67.3884 83.025 67.2913 83.0793 67.1913 83.1282C67.3899 83.2042 67.594 83.2693 67.8008 83.3289C66.5498 84.4214 65.4993 85.7228 64.6965 87.1748C61.0345 94.0989 36.0751 107.681 36.0751 107.681C36.0751 107.681 36.2165 107.76 36.4451 107.896C36.3526 107.952 36.2546 108.018 36.1458 108.091C33.9856 109.545 28.9143 113.786 33.4986 119.135C33.4986 119.135 37.0763 113.426 39.582 110.998C39.6963 110.89 39.8051 110.789 39.9112 110.694C40.0244 110.868 40.0599 111.08 40.0091 111.28L56.4229 101.959C56.4229 101.959 62.256 97.8308 63.883 96.8978C63.9333 96.8691 63.9905 96.8358 64.0543 96.7987C64.7019 96.4222 66.025 95.6529 67.5804 95.2949L67.3899 95.379C68.0031 95.2081 68.636 95.1169 69.2726 95.1078C72.1783 95.1539 75.3234 97.3046 76.3627 105.823C77.7529 117.231 77.1082 119.287 76.662 119.569C76.6066 119.564 76.5519 119.554 76.4987 119.539C76.512 119.551 76.5266 119.562 76.5423 119.571C76.4813 119.567 76.4211 119.557 76.3627 119.539C76.4264 119.599 76.5173 119.622 76.6021 119.598C76.6633 119.616 76.7291 119.608 76.7844 119.577H77.0048C77.0048 119.645 76.9975 119.717 76.9903 119.788C76.9866 119.823 76.983 119.859 76.9803 119.894C76.9585 119.894 76.8497 119.956 76.9803 119.965C76.9476 120.607 76.9504 121.321 76.9803 122.039C75.5356 122.121 74.0937 122.208 72.8285 122.286L72.9428 121.681L72.9945 121.41C74.1018 121.321 75.1547 120.992 75.2771 120.081C75.5492 118.085 72.8285 117.019 70.5296 116.886C68.2306 116.753 54.3879 117.686 54.3879 117.686C54.3879 117.686 52.312 120.399 58.8933 121.242C59.0892 121.345 59.2932 121.459 59.5 121.578C62.0765 123.065 65.5752 125.798 67.2485 127.146L67.4824 127.333L66.7315 127.938C70.253 128.743 73.6571 140.555 75.9174 148.398C76.2766 149.644 76.6068 150.79 76.9041 151.775C79.0725 158.965 83.8228 158.699 87.7568 157.636C91.4433 156.635 91.914 145.817 91.9575 144.458V144.32L98.5116 152.486L99.0095 153.107C99.2027 153.207 99.3904 153.302 99.5754 153.392C104.541 155.781 110.025 151.203 108.464 145.996C106.889 140.734 104.44 132.958 102.808 129.671C101.447 126.919 99.6761 122.349 98.6041 119.479C98.743 119.422 98.8784 119.357 99.0095 119.284C99.0095 119.284 98.985 119.156 98.9415 118.92L99.0095 118.885C99.0095 118.885 97.4315 110.6 97.3445 104.717V104.408V104.215C98.5307 103.944 99.2816 103.835 99.2816 103.835L99.3033 103.581L99.1646 103.61L99.823 95.9784C99.823 95.9784 102.244 90.7738 100.392 88.6041C99.8275 87.9671 99.4508 87.1871 99.3033 86.3503C98.9932 84.3541 99.3034 81.0317 103.621 78.2681C110.268 74.0073 112.847 70.5439 112.847 70.5439C112.847 70.5439 112.988 67.9999 108.918 66.8011ZM95.7175 72.0952V68.5695C96.2985 68.5413 96.8856 68.5584 97.4735 68.5755C98.1328 68.5947 98.7932 68.6139 99.4475 68.5695C100.056 68.5267 100.66 68.425 101.249 68.2657L101.548 68.4745C99.7367 69.8813 97.7826 71.0948 95.7175 72.0952ZM78.3325 128.424C77.8509 128.068 77.3612 127.713 76.8742 127.371C77.6815 128.673 78.3647 130.047 78.9147 131.475C78.8956 131.391 78.6317 130.162 78.3325 128.424Z" fill="url(#paint1_linear_0_6271)"/>
<path d="M87.5361 124.977L87.2468 126.587L87.0245 127.817L86.62 130.07L82.6985 132.886C82.6985 132.886 82.3449 132.576 81.7609 132.087C80.1537 130.73 76.7759 127.966 74.2955 126.482C73.6575 126.065 72.9673 125.739 72.2437 125.512L87.5361 124.977Z" fill="#FFBDC6"/>
<path opacity="0.1" d="M87.5361 124.977L87.2468 126.541C86.382 126.587 85.5146 126.543 84.6593 126.407L75.5089 126.538C75.0777 126.511 74.6732 126.479 74.2955 126.439C73.6575 126.034 72.9673 125.717 72.2437 125.497L87.5361 124.977Z" fill="black"/>
<path d="M84.7585 125.884C84.7585 125.884 89.3574 126.624 89.6268 124.784C89.8962 122.943 87.2586 121.948 85.0252 121.825C82.7918 121.701 69.3805 122.564 69.3805 122.564C69.3805 122.564 67.0151 125.521 75.5581 126.016L84.7585 125.884Z" fill="#474463"/>
<path opacity="0.1" d="M87.5361 124.977L87.2468 126.587L87.0245 127.817L86.62 130.07L82.6985 132.886C82.6985 132.886 82.3449 132.576 81.7609 132.087C80.1537 130.73 76.7759 127.966 74.2955 126.482C73.6575 126.065 72.9673 125.739 72.2437 125.512L87.5361 124.977Z" fill="black"/>
<path opacity="0.1" d="M87.5361 124.977L87.2468 126.541C86.382 126.587 85.5146 126.543 84.6593 126.407L75.5089 126.538C75.0777 126.511 74.6732 126.479 74.2955 126.439C73.6575 126.034 72.9673 125.717 72.2437 125.497L87.5361 124.977Z" fill="black"/>
<path opacity="0.1" d="M84.7617 125.886C84.7617 125.886 89.3634 126.622 89.6275 124.777C89.8915 122.931 87.2593 121.948 85.0258 121.825C82.7923 121.701 69.3806 122.563 69.3806 122.563C69.3806 122.563 67.015 125.516 75.5584 126.007L84.7617 125.886Z" fill="black"/>
<rect x="70.6616" y="61.1699" width="24.257" height="28.4757" fill="#474463"/>
<rect opacity="0.1" x="70.6616" y="61.1699" width="24.257" height="28.4757" fill="black"/>
<path d="M42.1862 109.979C41.7988 110.08 41.3032 110.467 40.7524 111.03C38.3801 113.464 34.9826 119.176 34.9826 119.176C30.6387 113.814 35.4465 109.577 37.4945 108.121C37.9927 107.769 38.3274 107.575 38.3274 107.575L42.1862 109.979Z" fill="#FFBDC6"/>
<path d="M87.5937 69.6072C87.5937 69.6072 88.7729 77.8412 92.837 79.8019C96.901 81.7627 87.5937 85.427 87.5937 85.427L74.8804 80.718C74.8804 80.718 82.0899 78.3635 80.6474 71.4367L87.5937 69.6072Z" fill="#B97A59"/>
<path d="M73.8257 120.231L73.5393 121.836L73.3064 123.072L72.9022 125.326L68.9834 128.14C68.9834 128.14 68.63 127.833 68.0465 127.343C66.4404 125.986 63.065 123.221 60.5836 121.737C59.9464 121.319 59.2565 120.992 58.5332 120.766L73.8257 120.231Z" fill="#B97A59"/>
<path opacity="0.1" d="M73.8257 120.231L73.5391 121.795C72.6742 121.841 71.8069 121.797 70.9515 121.661L61.8012 121.792C61.3699 121.765 60.9628 121.733 60.5851 121.693C59.9474 121.286 59.257 120.968 58.5332 120.747L73.8257 120.231Z" fill="black"/>
<path d="M71.0533 121.667C71.0533 121.667 75.6555 122.403 75.9168 120.561C76.1782 118.718 73.5511 117.73 71.3146 117.606C69.0782 117.483 55.6703 118.345 55.6703 118.345C55.6703 118.345 53.3018 121.297 61.8488 121.791L71.0533 121.667Z" fill="#0B4870"/>
<path opacity="0.1" d="M73.2986 122.963L72.8529 125.265L68.5312 128.14C68.5312 128.14 68.1416 127.826 67.498 127.326L73.213 122.867L73.2986 122.963Z" fill="black"/>
<path d="M99.6599 153.402C99.4775 153.312 99.2951 153.22 99.1154 153.13L98.6253 152.513L92.1973 144.378C92.1973 144.378 92.1973 144.427 92.1973 144.52C92.1538 145.878 91.6909 156.643 88.0808 157.638C84.2283 158.697 79.5809 158.964 77.4627 151.804C75.3445 144.645 71.473 129 67.498 128.071L73.4115 123.232C73.4115 123.232 77.3266 127.802 78.922 132.176C78.8621 131.904 76.1586 119.297 78.3775 117.067H97.7759C97.7759 117.067 100.771 125.579 102.824 129.796C104.422 133.07 106.82 140.811 108.364 146.049C109.894 151.223 104.522 155.79 99.6599 153.402Z" fill="#0B4870"/>
<path opacity="0.1" d="M98.6102 119.091C95.6174 120.841 82.4794 120.129 78.2053 119.844L77.0408 119.76C76.9157 119.76 77.0599 119.69 77.0599 119.69L77.1796 118.499L80.3655 110.497L97.424 100.719C97.0784 101.749 96.9642 103.325 96.9914 105.129C97.0703 110.927 98.6102 119.091 98.6102 119.091Z" fill="black"/>
<path d="M98.6102 119.09C95.637 120.841 82.5847 120.129 78.3385 119.843L77.1817 119.763L76.9897 119.747L77.2006 119.693L78.2439 119.424L80.4846 110.498L97.4317 100.719C97.0884 101.75 96.9749 103.326 97.0019 105.131C97.0803 110.926 98.6102 119.09 98.6102 119.09Z" fill="#B97A59"/>
<path opacity="0.1" d="M97.6464 105.215C94.1465 106.022 86.4439 108.391 83.4848 114.107C81.5111 117.914 79.8504 119.547 78.692 120.231L77.5171 120.148C77.5248 120.125 77.5312 120.101 77.5363 120.077L78.5959 119.802L80.8715 110.696L98.0828 100.719C97.737 101.765 97.6189 103.373 97.6464 105.215Z" fill="black"/>
<path opacity="0.1" d="M38.283 107.575L42.1864 109.774C41.7944 109.867 41.2932 110.223 40.7359 110.739C40.4106 109.847 38.3683 108.602 37.4404 108.071C37.9444 107.753 38.283 107.575 38.283 107.575Z" fill="black"/>
<path opacity="0.1" d="M76.9897 119.451C76.8162 119.541 76.6045 119.511 76.4624 119.377C76.6336 119.427 76.8113 119.452 76.9897 119.451V119.451Z" fill="black"/>
<path d="M85.6141 79.8193C85.6141 79.8193 82.0403 80.2151 79.5267 77.5693C79.5267 77.5693 68.9515 80.6136 65.3696 87.4912C61.7876 94.3687 37.4404 107.864 37.4404 107.864C37.4404 107.864 41.6759 110.244 41.2773 111.434L57.2891 102.173C57.2891 102.173 62.9834 98.0745 64.5642 97.1474C66.1451 96.2202 74.8872 90.5328 76.7392 106.009C78.5912 121.486 76.7392 119.634 76.7392 119.634C76.7392 119.634 79.3857 120.561 83.2225 113.152C87.0594 105.744 98.9659 104.025 98.9659 104.025L99.6275 96.2229C99.6275 96.2229 101.989 91.0506 100.17 88.9035C99.6186 88.2679 99.2519 87.4935 99.1096 86.6643C98.8086 84.6827 99.1096 81.3808 103.323 78.6374C109.807 74.403 112.32 70.9656 112.32 70.9656C112.32 70.9656 112.453 68.4499 108.483 67.2598C104.514 66.0697 88.3718 59.588 88.3718 59.588L87.8295 61.838L100.566 70.8246C100.566 70.8246 94.2152 75.9753 89.1771 75.8506C89.1771 75.8506 90.1126 79.6865 85.6141 79.8193Z" fill="#FDB32A"/>
<path opacity="0.1" d="M88.0637 73.1815C87.7505 72.1817 87.5058 71.1639 87.3311 70.1345L80.3139 71.8804C80.6233 73.1423 80.568 74.4593 80.1538 75.6943C83.087 76.4318 86.2036 75.4417 88.0637 73.1815V73.1815Z" fill="black"/>
<path d="M82.2629 75.9351C86.3402 75.9351 89.6455 72.6298 89.6455 68.5525C89.6455 64.4752 86.3402 61.1699 82.2629 61.1699C78.1857 61.1699 74.8804 64.4752 74.8804 68.5525C74.8804 72.6298 78.1857 75.9351 82.2629 75.9351Z" fill="#B97A59"/>
<path opacity="0.1" d="M85.9694 51.213C88.0684 51.4505 90.0615 52.357 92.1279 52.8512C92.6442 53.0133 93.194 53.035 93.7213 52.914C94.5234 52.6628 95.176 51.8219 96.008 51.8464C96.5191 51.8464 96.9732 52.2123 97.3947 52.5481C98.0712 53.0668 98.7075 53.6363 99.298 54.2519C100.723 55.8054 101.606 57.8968 102.906 59.5869C104.206 61.277 106.256 62.5902 108.102 61.8148C106.846 66.7294 102.732 70.4727 98.2811 70.7785C96.5056 70.8986 94.6865 70.5273 92.9681 71.0515C92.5398 71.2264 92.0881 71.3368 91.6276 71.3791C90.6379 71.3791 89.8412 70.4672 89.224 69.5799C87.7775 67.4939 86.6328 65.124 85.0041 63.2209C84.4603 62.593 83.8322 61.995 83.0709 61.8804C82.3096 61.7657 81.6108 62.1288 80.9337 62.481C79.8162 63.0626 78.6742 63.666 77.8069 64.6653C76.9395 65.6646 76.393 67.1499 76.7519 68.4877C76.9449 69.214 77.3854 69.8693 77.3936 70.6283C77.4099 71.8378 76.344 72.7252 76.1347 73.9047C76.0875 74.4001 76.0702 74.8979 76.083 75.3954C75.9906 77.0118 74.9383 78.336 73.8398 79.3517C73.4102 79.7476 72.9371 80.1708 72.812 80.7824C72.7277 81.1974 72.812 81.6397 72.7577 82.0602C72.5972 83.1086 71.5559 83.641 70.6341 83.7803C69.5571 83.9377 68.4578 83.8068 67.4474 83.4007C68.7362 82.7864 69.5302 81.0472 69.2311 79.4855C68.8205 77.323 66.6562 75.7722 66.8411 73.5689C66.9432 72.8938 67.1448 72.2377 67.4393 71.6221C67.9112 70.434 68.254 69.1982 68.4616 67.9362C68.6248 66.9588 68.7036 65.924 68.3991 64.9957C68.1272 64.1465 67.5589 63.4749 67.0776 62.7595C66.4246 61.7855 65.9094 60.7251 65.5468 59.6087C65.4143 59.2791 65.3639 58.9221 65.4 58.5685C65.5059 58.1447 65.7383 57.7636 66.0662 57.4764C67.2489 56.2286 68.5133 54.929 70.0985 54.574C70.8546 54.4457 71.624 54.4154 72.3879 54.4839C73.7162 54.5272 75.0459 54.4706 76.3658 54.3146C77.4534 54.1863 79.2915 54.2054 80.2132 53.4956C81.0724 52.8321 81.5564 52.0048 82.6141 51.5843C83.6858 51.1884 84.8375 51.0609 85.9694 51.213V51.213Z" fill="black"/>
<path opacity="0.1" d="M90.1729 129.195C90.1729 129.195 95.0678 137.665 93.5841 140.269Z" fill="black"/>
<path opacity="0.1" d="M98.7076 152.398L92.3345 144.185C92.3345 144.185 92.3345 144.234 92.3345 144.328C92.3345 144.328 91.967 141.669 93.1805 142.562C95.84 144.517 100.094 147.723 100.186 148.275C100.278 148.827 99.3238 151.032 98.7076 152.398Z" fill="black"/>
<g opacity="0.1">
<path d="M89.3534 75.8999C89.3534 75.8999 89.8962 78.1212 88.1484 79.2319C90.8352 78.7763 90.9546 76.6979 90.8623 75.7948C90.3635 75.8742 89.8585 75.9094 89.3534 75.8999V75.8999Z" fill="black"/>
<path d="M39.033 107.206C39.033 107.206 63.398 93.789 66.9858 86.9498C69.5504 82.0409 75.7325 79.0971 79.0163 77.8247C76.6227 78.6334 68.5571 81.6823 65.5284 87.4755C61.9543 94.3146 37.5757 107.734 37.5757 107.734L39.033 107.206Z" fill="black"/>
<path d="M94.0973 74.854C98.244 73.5735 102.206 70.3764 102.206 70.3764L89.4837 61.4265L89.7741 60.2026L88.5556 59.7173L88.0264 61.9548L100.741 70.8993C98.7031 72.4907 96.4709 73.8195 94.0973 74.854V74.854Z" fill="black"/>
<path d="M94.1704 105.168C95.7944 104.617 97.4608 104.199 99.1531 103.917L99.1748 103.664C97.47 104.036 95.7969 104.539 94.1704 105.168H94.1704Z" fill="black"/>
<path d="M78.7614 118.948H78.6447C78.5553 118.994 78.4468 118.979 78.3733 118.911C78.4615 118.936 78.5529 118.949 78.6447 118.948C79.0789 118.698 79.7303 116.732 78.3733 105.362C76.9133 93.2309 71.168 94.1771 68.0254 95.5735C71.2386 94.6947 75.6595 95.4549 76.916 105.887C78.2865 117.258 77.6325 119.223 77.1874 119.474C77.7521 119.453 78.2987 119.271 78.7614 118.948V118.948Z" fill="black"/>
<path d="M77.1874 119.477C77.0956 119.477 77.0042 119.465 76.916 119.439C76.9895 119.507 77.0979 119.522 77.1874 119.477V119.477Z" fill="black"/>
</g>
<path d="M92.1278 52.3194C92.6443 52.4807 93.1941 52.5014 93.7212 52.3795C94.5233 52.131 95.1758 51.2872 96.0079 51.3118C96.519 51.3281 96.9731 51.6777 97.3946 52.0136C98.0705 52.5331 98.7067 53.1027 99.2979 53.7176C100.723 55.2714 101.606 57.3632 102.906 59.0536C104.206 60.744 106.256 62.0575 108.102 61.282C106.846 66.1974 102.732 69.9414 98.281 70.2472C96.5055 70.3701 94.6864 69.9987 92.968 70.5203C92.5401 70.6965 92.0882 70.807 91.6275 70.848C90.6378 70.848 89.8411 69.9359 89.2239 69.0484C87.7773 66.962 86.6326 64.5944 85.0039 62.6911C84.4601 62.0602 83.832 61.4622 83.0707 61.3475C82.3093 61.2328 81.6105 61.5987 80.9335 61.951C79.816 62.5327 78.674 63.1334 77.8066 64.1357C76.9392 65.1379 76.3927 66.618 76.7516 67.9588C76.9447 68.6852 77.3852 69.3406 77.3933 70.0997C77.4096 71.3122 76.3438 72.197 76.1344 73.3767C76.0871 73.8722 76.0699 74.3701 76.0827 74.8677C75.9903 76.4844 74.938 77.8061 73.8395 78.8247C73.4099 79.2179 72.9368 79.6439 72.8117 80.2529C72.7274 80.6707 72.8117 81.1104 72.7574 81.5337C72.5969 82.5823 71.5555 83.1148 70.6338 83.2513C69.5568 83.4114 68.4568 83.2804 67.4471 82.8718C68.7359 82.2601 69.5299 80.5178 69.2308 78.9585C68.8202 76.7957 66.6558 75.2419 66.8407 73.0408C66.9425 72.3655 67.1441 71.7092 67.4389 71.0938C67.9105 69.9044 68.2533 68.6675 68.4613 67.4044C68.6244 66.4295 68.7033 65.3946 68.3987 64.4633C68.1268 63.6168 67.5585 62.9423 67.0773 62.2268C66.4248 61.2532 65.9096 60.1936 65.5465 59.0782C65.4147 58.7474 65.3643 58.3895 65.3996 58.035C65.5086 57.6164 65.7408 57.2405 66.0658 56.9563C67.2486 55.7084 68.5129 54.4112 70.0981 54.0535C70.8545 53.9274 71.6238 53.898 72.3876 53.9661C73.7159 54.008 75.0455 53.9514 76.3655 53.7968C77.4531 53.6684 79.2912 53.6848 80.213 52.9776C81.0722 52.3167 81.5562 51.4865 82.6139 51.066C83.6849 50.6673 84.8362 50.5352 85.9692 50.6809C88.0683 50.9213 90.0613 51.8251 92.1278 52.3194Z" fill="#0B4870"/>
<path d="M136.05 140.796C144.496 140.796 151.343 133.95 151.343 125.504C151.343 117.058 144.496 110.211 136.05 110.211C127.604 110.211 120.758 117.058 120.758 125.504C120.758 133.95 127.604 140.796 136.05 140.796Z" fill="white"/>
<path fill-rule="evenodd" clip-rule="evenodd" d="M143.556 141.887C151.142 138.745 156.089 131.342 156.089 123.131C156.089 111.918 146.999 102.829 135.787 102.829C127.575 102.829 120.173 107.775 117.03 115.361C113.888 122.948 115.625 131.68 121.431 137.486C127.237 143.292 135.97 145.029 143.556 141.887ZM148.5 118.818L133.441 133.877V133.888C133.195 134.134 132.862 134.273 132.514 134.273C132.167 134.273 131.833 134.134 131.588 133.888L123.073 125.376C122.563 124.864 122.563 124.036 123.073 123.523L124.926 121.66C125.439 121.15 126.267 121.15 126.779 121.66L132.514 127.408L144.797 115.125C145.042 114.879 145.375 114.741 145.722 114.741C146.069 114.741 146.402 114.879 146.647 115.125L148.5 116.965C148.747 117.21 148.885 117.544 148.885 117.891C148.885 118.239 148.747 118.572 148.5 118.818Z" fill="#3ACC6C"/>
<defs>
<linearGradient id="paint0_linear_0_6271" x1="76.797" y1="120.563" x2="76.797" y2="120.426" gradientUnits="userSpaceOnUse">
<stop stop-color="#808080" stop-opacity="0.25"/>
<stop offset="0.54" stop-color="#808080" stop-opacity="0.12"/>
<stop offset="1" stop-color="#808080" stop-opacity="0.1"/>
</linearGradient>
<linearGradient id="paint1_linear_0_6271" x1="112.845" y1="158.184" x2="112.845" y2="50.6232" gradientUnits="userSpaceOnUse">
<stop stop-color="#808080" stop-opacity="0.25"/>
<stop offset="0.54" stop-color="#808080" stop-opacity="0.12"/>
<stop offset="1" stop-color="#808080" stop-opacity="0.1"/>
</linearGradient>
</defs>
</svg>
