<svg width="30" height="30" viewBox="0 0 30 30" fill="none" xmlns="http://www.w3.org/2000/svg">
<path fill-rule="evenodd" clip-rule="evenodd" d="M2.5 11.25V13.75C2.5 14.5 3 15 3.75 15C4.5 15 5 14.5 5 13.75V11.25C5 9.125 6.625 7.5 8.75 7.5H23.25L20.375 10.375C19.875 10.875 19.875 11.625 20.375 12.125C20.625 12.375 20.875 12.5 21.25 12.5C21.625 12.5 21.875 12.375 22.125 12.125L27.125 7.125C27.1875 7.0625 27.2188 7 27.25 6.9375C27.2813 6.875 27.3125 6.8125 27.375 6.75C27.5 6.375 27.5 6 27.375 5.75C27.375 5.625 27.25 5.5 27.125 5.375L22.125 0.375C21.625 -0.125 20.875 -0.125 20.375 0.375C19.875 0.875 19.875 1.625 20.375 2.125L23.25 5H8.75C5.25 5 2.5 7.75 2.5 11.25ZM25 16.25C25 15.5 25.5 15 26.25 15C27 15 27.5 15.5 27.5 16.25V18.75C27.5 22.25 24.75 25 21.25 25H6.74998L9.62498 27.875C10.125 28.375 10.125 29.125 9.62498 29.625C9.37498 29.875 9.12498 30 8.74998 30C8.37498 30 8.12498 29.875 7.87498 29.625L2.87498 24.625C2.81248 24.5625 2.78123 24.5 2.74998 24.4375C2.71873 24.375 2.68748 24.3125 2.62498 24.25C2.49998 23.875 2.49998 23.5 2.62498 23.25C2.62498 23.125 2.74998 23 2.87498 22.875L7.87498 17.875C8.37498 17.375 9.12498 17.375 9.62498 17.875C10.125 18.375 10.125 19.125 9.62498 19.625L6.74998 22.5H21.25C23.375 22.5 25 20.875 25 18.75V16.25Z" fill="black"/>
<mask id="mask0_0_5822" style="mask-type:alpha" maskUnits="userSpaceOnUse" x="2" y="0" width="26" height="30">
<path fill-rule="evenodd" clip-rule="evenodd" d="M2.5 11.25V13.75C2.5 14.5 3 15 3.75 15C4.5 15 5 14.5 5 13.75V11.25C5 9.125 6.625 7.5 8.75 7.5H23.25L20.375 10.375C19.875 10.875 19.875 11.625 20.375 12.125C20.625 12.375 20.875 12.5 21.25 12.5C21.625 12.5 21.875 12.375 22.125 12.125L27.125 7.125C27.1875 7.0625 27.2188 7 27.25 6.9375C27.2813 6.875 27.3125 6.8125 27.375 6.75C27.5 6.375 27.5 6 27.375 5.75C27.375 5.625 27.25 5.5 27.125 5.375L22.125 0.375C21.625 -0.125 20.875 -0.125 20.375 0.375C19.875 0.875 19.875 1.625 20.375 2.125L23.25 5H8.75C5.25 5 2.5 7.75 2.5 11.25ZM25 16.25C25 15.5 25.5 15 26.25 15C27 15 27.5 15.5 27.5 16.25V18.75C27.5 22.25 24.75 25 21.25 25H6.74998L9.62498 27.875C10.125 28.375 10.125 29.125 9.62498 29.625C9.37498 29.875 9.12498 30 8.74998 30C8.37498 30 8.12498 29.875 7.87498 29.625L2.87498 24.625C2.81248 24.5625 2.78123 24.5 2.74998 24.4375C2.71873 24.375 2.68748 24.3125 2.62498 24.25C2.49998 23.875 2.49998 23.5 2.62498 23.25C2.62498 23.125 2.74998 23 2.87498 22.875L7.87498 17.875C8.37498 17.375 9.12498 17.375 9.62498 17.875C10.125 18.375 10.125 19.125 9.62498 19.625L6.74998 22.5H21.25C23.375 22.5 25 20.875 25 18.75V16.25Z" fill="white"/>
</mask>
<g mask="url(#mask0_0_5822)">
<rect width="30" height="30" fill="white"/>
</g>
</svg>
