<svg width="217" height="220" viewBox="0 0 217 220" fill="none" xmlns="http://www.w3.org/2000/svg">
<path opacity="0.5" d="M29.7492 85.2422C29.7492 85.2422 32.1803 6.90936 75.9361 21.7102C119.692 36.5111 127.092 74.082 158.401 45.0499C189.711 16.0178 232.974 73.5218 188.003 117.635C143.032 161.748 239.805 189.072 191.418 210.135C143.031 231.197 114.295 152.639 79.4226 189.072C44.5498 225.504 4.70168 173.026 18.9332 141.201C33.1647 109.376 29.7492 85.2422 29.7492 85.2422Z" fill="#C5D6F1"/>
<path opacity="0.2" d="M100.292 197.188C100.292 197.188 23.4449 212.565 27.9487 166.594C32.4525 120.623 67.3701 104.904 32.0002 80.9853C-3.36981 57.0668 42.8385 1.90141 95.9923 35.7104C149.146 69.5194 153.837 -30.9285 185.314 11.4293C216.79 53.7871 146.784 99.5718 190.17 125.285C233.555 150.998 191.468 201.698 157.246 195.046C123.024 188.394 100.292 197.188 100.292 197.188Z" fill="#C5D6F1"/>
<path d="M134.424 96.6507C134.424 96.1443 134.014 95.7338 133.507 95.7338C133.001 95.7338 132.591 96.1443 132.591 96.6507C132.591 97.1571 133.001 97.5677 133.507 97.5677C134.014 97.5677 134.424 97.1571 134.424 96.6507Z" fill="white"/>
<path d="M122.97 216.977C122.97 216.593 122.659 216.283 122.276 216.283C121.893 216.283 121.583 216.593 121.583 216.977C121.583 217.36 121.893 217.67 122.276 217.67C122.659 217.67 122.97 217.36 122.97 216.977Z" fill="white"/>
<path d="M88.956 127.597C88.956 126.692 88.2219 125.957 87.3161 125.957C86.4104 125.957 85.6763 126.692 85.6763 127.597C85.6763 128.503 86.4104 129.237 87.3161 129.237C88.2219 129.237 88.956 128.503 88.956 127.597Z" fill="white"/>
<path d="M194.737 204.115C194.737 203.502 194.24 203.005 193.627 203.005C193.014 203.005 192.517 203.502 192.517 204.115C192.517 204.728 193.014 205.225 193.627 205.225C194.24 205.225 194.737 204.728 194.737 204.115Z" fill="white"/>
<path opacity="0.5" d="M177.865 95.7564C177.865 95.0304 177.276 94.442 176.55 94.442C175.825 94.442 175.236 95.0304 175.236 95.7564C175.236 96.4824 175.825 97.0707 176.55 97.0707C177.276 97.0707 177.865 96.4821 177.865 95.7564Z" fill="white"/>
<path d="M60.9417 105.619C60.9417 105.006 60.4448 104.509 59.8316 104.509C59.2188 104.509 58.7216 105.006 58.7216 105.619C58.7216 106.232 59.2185 106.729 59.8316 106.729C60.4448 106.729 60.9417 106.232 60.9417 105.619Z" fill="white"/>
<path d="M89.1834 151.616C89.1834 151.394 89.0034 151.214 88.7813 151.214C88.5592 151.214 88.3794 151.394 88.3794 151.616C88.3794 151.838 88.5594 152.018 88.7813 152.018C89.0034 152.018 89.1834 151.838 89.1834 151.616Z" fill="white"/>
<path d="M195.655 183.175C195.947 183.175 196.183 182.938 196.183 182.647C196.183 182.356 195.947 182.119 195.655 182.119C195.364 182.119 195.128 182.356 195.128 182.647C195.128 182.938 195.364 183.175 195.655 183.175Z" fill="white"/>
<path d="M141.041 60.1966C141.333 60.1966 141.569 59.9604 141.569 59.669C141.569 59.3777 141.333 59.1415 141.041 59.1415C140.75 59.1415 140.514 59.3777 140.514 59.669C140.514 59.9604 140.75 60.1966 141.041 60.1966Z" fill="white"/>
<path d="M41.3191 164.142C41.3191 163.92 41.139 163.74 40.9169 163.74C40.6951 163.74 40.515 163.92 40.515 164.142C40.515 164.364 40.6951 164.544 40.9169 164.544C41.139 164.544 41.3191 164.364 41.3191 164.142Z" fill="white"/>
<path d="M46.9547 139.767C46.9547 139.545 46.7746 139.366 46.5525 139.366C46.3307 139.366 46.1506 139.546 46.1506 139.767C46.1506 139.99 46.3307 140.169 46.5525 140.169C46.7746 140.169 46.9547 139.989 46.9547 139.767Z" fill="white"/>
<path d="M117.882 91.9452C117.879 91.7233 117.697 91.5461 117.474 91.5492C117.253 91.5525 117.075 91.7353 117.079 91.9572C117.082 92.179 117.265 92.3563 117.487 92.3529C117.709 92.3499 117.886 92.167 117.882 91.9452Z" fill="white"/>
<path d="M48.1628 78.6638C48.1595 78.4417 47.9769 78.2647 47.7548 78.2677C47.5327 78.2711 47.3557 78.4539 47.3591 78.6758C47.3624 78.8979 47.5449 79.0749 47.7671 79.0715C47.9889 79.0684 48.1662 78.8859 48.1628 78.6638Z" fill="white"/>
<path opacity="0.5" d="M102.457 57.7547C102.457 57.5325 102.277 57.3525 102.055 57.3525C101.833 57.3525 101.653 57.5325 101.653 57.7547C101.653 57.9768 101.833 58.1565 102.055 58.1565C102.277 58.1565 102.457 57.9768 102.457 57.7547Z" fill="white"/>
<path opacity="0.5" d="M133.022 114.627C132.981 114.409 132.772 114.265 132.553 114.305C132.335 114.346 132.191 114.555 132.231 114.774C132.271 114.992 132.481 115.136 132.7 115.096C132.918 115.055 133.062 114.846 133.022 114.627Z" fill="white"/>
<path d="M147.028 104.826C147.028 104.604 146.848 104.424 146.626 104.424C146.404 104.424 146.224 104.605 146.224 104.826C146.224 105.048 146.404 105.228 146.626 105.228C146.848 105.228 147.028 105.048 147.028 104.826Z" fill="white"/>
<path opacity="0.5" d="M197.524 73.3838C197.524 73.162 197.344 72.9819 197.122 72.9819C196.9 72.9819 196.72 73.162 196.72 73.3838C196.72 73.6059 196.9 73.7857 197.122 73.7857C197.344 73.7857 197.524 73.6059 197.524 73.3838Z" fill="white"/>
<path opacity="0.5" d="M132.464 62.8507C132.464 62.6285 132.284 62.4488 132.062 62.4488C131.84 62.4488 131.66 62.6288 131.66 62.8507C131.66 63.0725 131.84 63.2526 132.062 63.2526C132.284 63.2526 132.464 63.0725 132.464 62.8507Z" fill="white"/>
<path opacity="0.5" d="M122.813 110.643C122.813 110.421 122.633 110.242 122.411 110.242C122.189 110.242 122.009 110.422 122.009 110.643C122.009 110.866 122.189 111.045 122.411 111.045C122.633 111.045 122.813 110.865 122.813 110.643Z" fill="white"/>
<path opacity="0.5" d="M169.462 94.4936C169.462 94.2715 169.282 94.0917 169.06 94.0917C168.838 94.0917 168.658 94.2718 168.658 94.4936C168.658 94.7157 168.838 94.8955 169.06 94.8955C169.282 94.8955 169.462 94.7157 169.462 94.4936Z" fill="white"/>
<path d="M100.955 44.1784C100.955 43.7899 100.64 43.475 100.252 43.475C99.8634 43.475 99.5485 43.7899 99.5485 44.1784C99.5485 44.5669 99.8634 44.8818 100.252 44.8818C100.64 44.8818 100.955 44.5669 100.955 44.1784Z" fill="white"/>
<path d="M54.5923 131.016C54.5923 130.628 54.2774 130.313 53.8886 130.313C53.4998 130.313 53.1852 130.628 53.1852 131.016C53.1852 131.405 53.5001 131.72 53.8886 131.72C54.2771 131.72 54.5923 131.405 54.5923 131.016Z" fill="white"/>
<path d="M167.555 133.902C167.555 133.68 167.375 133.501 167.153 133.501C166.931 133.501 166.751 133.681 166.751 133.902C166.751 134.124 166.931 134.304 167.153 134.304C167.375 134.304 167.555 134.124 167.555 133.902Z" fill="white"/>
<path opacity="0.5" d="M148.569 84.9902C148.569 84.7681 148.389 84.5884 148.167 84.5884C147.945 84.5884 147.765 84.7684 147.765 84.9902C147.765 85.2121 147.945 85.3921 148.167 85.3921C148.389 85.3921 148.569 85.2121 148.569 84.9902Z" fill="white"/>
<path d="M79.0131 107.084C79.0131 106.862 78.8331 106.682 78.6112 106.682C78.3891 106.682 78.2094 106.862 78.2094 107.084C78.2094 107.306 78.3894 107.486 78.6112 107.486C78.8331 107.486 79.0131 107.306 79.0131 107.084Z" fill="white"/>
<path d="M68.1815 58.8179C68.1815 58.5958 68.0014 58.416 67.7796 58.416C67.5574 58.416 67.3777 58.596 67.3777 58.8179C67.3777 59.0397 67.5577 59.2198 67.7796 59.2198C68.0014 59.2198 68.1815 59.04 68.1815 58.8179Z" fill="white"/>
<path opacity="0.5" d="M44.8243 88.5244C44.8243 88.3023 44.6442 88.1223 44.4224 88.1223C44.2003 88.1223 44.0205 88.3023 44.0205 88.5244C44.0205 88.7463 44.2005 88.9263 44.4224 88.9263C44.6442 88.9266 44.8243 88.7466 44.8243 88.5244Z" fill="white"/>
<path d="M112.713 172.043C112.838 172.043 112.939 171.942 112.939 171.817C112.939 171.692 112.838 171.591 112.713 171.591C112.589 171.591 112.487 171.692 112.487 171.817C112.487 171.942 112.589 172.043 112.713 172.043Z" fill="white"/>
<path d="M104.899 154.46C104.899 154.027 104.548 153.676 104.115 153.676C103.683 153.676 103.332 154.027 103.332 154.46C103.332 154.892 103.682 155.243 104.115 155.243C104.548 155.243 104.899 154.893 104.899 154.46Z" fill="white"/>
<path d="M89.3495 90.0918C89.3495 89.659 88.9989 89.3084 88.5664 89.3084C88.1338 89.3084 87.783 89.659 87.783 90.0918C87.783 90.5244 88.1336 90.875 88.5664 90.875C88.9986 90.875 89.3495 90.5244 89.3495 90.0918Z" fill="white"/>
<path d="M42.1872 47.1719C42.1872 46.8475 41.9241 46.5844 41.5997 46.5844C41.2753 46.5844 41.0122 46.8475 41.0122 47.1719C41.0122 47.4963 41.2753 47.7594 41.5997 47.7594C41.9241 47.7594 42.1872 47.4963 42.1872 47.1719Z" fill="white"/>
<path d="M173.44 149.609C173.44 149.382 173.256 149.198 173.03 149.198C172.803 149.198 172.619 149.382 172.619 149.609C172.619 149.836 172.803 150.02 173.03 150.02C173.256 150.019 173.44 149.836 173.44 149.609Z" fill="white"/>
<path d="M46.9418 188.879C46.9418 188.657 46.7618 188.477 46.5399 188.477C46.3178 188.477 46.1381 188.657 46.1381 188.879C46.1381 189.101 46.3181 189.281 46.5399 189.281C46.7618 189.281 46.9418 189.101 46.9418 188.879Z" fill="white"/>
<path d="M185.34 130.889L184.998 132.481L184.657 130.889L183.451 130.508L184.657 130.128L184.998 128.534L185.34 130.128L186.545 130.508L185.34 130.889Z" fill="white"/>
<path d="M77.0594 79.2633L76.1749 83.3919L75.29 79.2633L72.1658 78.2772L75.29 77.2912L76.1749 73.1625L77.0594 77.2912L80.1837 78.2772L77.0594 79.2633Z" fill="white"/>
<path d="M120.04 43.1023L119.155 47.231L118.27 43.1023L115.146 42.1163L118.27 41.1303L119.155 37.0016L120.04 41.1303L123.164 42.1163L120.04 43.1023Z" fill="white"/>
<path opacity="0.5" d="M89.7581 62.1503L89.2032 64.7391L88.6486 62.1503L86.6896 61.5321L88.6486 60.914L89.2032 58.3252L89.7581 60.914L91.7167 61.5321L89.7581 62.1503Z" fill="white"/>
<path d="M45.63 38.023L45.0754 40.6119L44.5205 38.023L42.5618 37.4049L44.5205 36.7864L45.0754 34.1979L45.63 36.7864L47.5887 37.4049L45.63 38.023Z" fill="white"/>
<path d="M160.906 73.8699L160.351 76.4584L159.796 73.8699L157.838 73.2514L159.796 72.6333L160.351 70.0447L160.906 72.6333L162.865 73.2514L160.906 73.8699Z" fill="white"/>
<path d="M53.8207 93.2046L53.474 94.8227L53.1273 93.2046L51.903 92.8183L53.1273 92.4318L53.474 90.8139L53.8207 92.4318L55.0447 92.8183L53.8207 93.2046Z" fill="white"/>
<path d="M63.3839 142.738L62.829 145.327L62.2744 142.738L60.3154 142.12L62.2744 141.502L62.829 138.913L63.3839 141.502L65.3426 142.12L63.3839 142.738Z" fill="white"/>
<path d="M83.904 202.556L82.9235 207.13L81.9433 202.556L78.4822 201.463L81.9433 200.371L82.9235 195.796L83.904 200.371L87.3649 201.463L83.904 202.556Z" fill="white"/>
<path opacity="0.5" d="M158.408 145.236L157.853 147.825L157.298 145.236L155.339 144.618L157.298 143.999L157.853 141.411L158.408 143.999L160.367 144.618L158.408 145.236Z" fill="white"/>
<path d="M52.9417 208.703L52.5435 210.561L52.1455 208.703L50.74 208.259L52.1455 207.816L52.5435 205.958L52.9417 207.816L54.3472 208.259L52.9417 208.703Z" fill="white"/>
<path d="M95.336 212.786C95.336 212.403 95.0255 212.093 94.6423 212.093C94.2591 212.093 93.9486 212.403 93.9486 212.786C93.9486 213.17 94.2594 213.48 94.6423 213.48C95.0255 213.48 95.336 213.17 95.336 212.786Z" fill="white"/>
<path d="M181.948 214.251C181.948 213.868 181.637 213.558 181.254 213.558C180.87 213.558 180.56 213.869 180.56 214.251C180.56 214.635 180.871 214.945 181.254 214.945C181.637 214.945 181.948 214.635 181.948 214.251Z" fill="white"/>
<path opacity="0.5" d="M51.122 176.765C51.122 176.152 50.6251 175.655 50.0119 175.655C49.3988 175.655 48.9019 176.152 48.9019 176.765C48.9019 177.378 49.3988 177.875 50.0119 177.875C50.6251 177.875 51.122 177.378 51.122 176.765Z" fill="white"/>
<path opacity="0.5" d="M84.9221 35.4331C85.1431 34.8612 84.8588 34.2185 84.2869 33.9975C83.7153 33.7765 83.0723 34.0608 82.8513 34.6324C82.6303 35.2043 82.9146 35.847 83.4862 36.0682C84.0584 36.2893 84.7011 36.005 84.9221 35.4331Z" fill="white"/>
<path opacity="0.5" d="M62.809 215.023C62.809 214.801 62.629 214.621 62.4071 214.621C62.185 214.621 62.0052 214.801 62.0052 215.023C62.0052 215.245 62.1853 215.425 62.4071 215.425C62.629 215.425 62.809 215.245 62.809 215.023Z" fill="white"/>
<path opacity="0.5" d="M68.7564 189.137C68.7564 188.915 68.5764 188.735 68.3545 188.735C68.1327 188.735 67.9526 188.915 67.9526 189.137C67.9526 189.359 68.1327 189.539 68.3545 189.539C68.5764 189.539 68.7564 189.359 68.7564 189.137Z" fill="white"/>
<path opacity="0.5" d="M161.554 195.487C161.554 195.07 161.217 194.733 160.801 194.733C160.384 194.733 160.047 195.07 160.047 195.487C160.047 195.903 160.385 196.24 160.801 196.24C161.217 196.24 161.554 195.903 161.554 195.487Z" fill="white"/>
<path d="M169.771 191.666C169.771 191.444 169.591 191.264 169.369 191.264C169.147 191.264 168.967 191.444 168.967 191.666C168.967 191.888 169.147 192.068 169.369 192.068C169.591 192.068 169.771 191.888 169.771 191.666Z" fill="white"/>
<path d="M130.115 84.3554C130.115 84.1332 129.935 83.9535 129.713 83.9535C129.491 83.9535 129.311 84.1335 129.311 84.3554C129.311 84.5775 129.491 84.7573 129.713 84.7573C129.935 84.7573 130.115 84.5772 130.115 84.3554Z" fill="white"/>
<path d="M94.6515 101.522C94.6515 101.246 94.4285 101.023 94.1532 101.023C93.8781 101.023 93.6552 101.246 93.6552 101.522C93.6552 101.797 93.8781 102.02 94.1532 102.02C94.4285 102.02 94.6515 101.797 94.6515 101.522Z" fill="white"/>
<path d="M62.1708 35.835C62.3928 35.835 62.5727 35.655 62.5727 35.4331C62.5727 35.2111 62.3928 35.0312 62.1708 35.0312C61.9489 35.0312 61.7689 35.2111 61.7689 35.4331C61.7689 35.655 61.9489 35.835 62.1708 35.835Z" fill="white"/>
<path d="M97.7986 154.722C97.7986 154.598 97.6974 154.496 97.5726 154.496C97.4477 154.496 97.3466 154.598 97.3466 154.722C97.3466 154.847 97.4477 154.948 97.5726 154.948C97.6974 154.948 97.7986 154.847 97.7986 154.722Z" fill="white"/>
<path d="M113.166 203.79C113.166 203.665 113.065 203.564 112.94 203.564C112.815 203.564 112.714 203.665 112.714 203.79C112.714 203.914 112.815 204.016 112.94 204.016C113.064 204.016 113.166 203.914 113.166 203.79Z" fill="white"/>
<path d="M185.975 36.753C185.975 36.6282 185.874 36.527 185.749 36.527C185.624 36.527 185.523 36.6282 185.523 36.753C185.523 36.8779 185.624 36.979 185.749 36.979C185.874 36.979 185.975 36.8779 185.975 36.753Z" fill="white"/>
<path d="M181.768 103.256C181.768 103.131 181.666 103.03 181.541 103.03C181.417 103.03 181.315 103.131 181.315 103.256C181.315 103.381 181.416 103.482 181.541 103.482C181.666 103.482 181.768 103.381 181.768 103.256Z" fill="white"/>
<path d="M69.7333 159.344C69.7333 159.219 69.6322 159.118 69.507 159.118C69.3822 159.118 69.281 159.219 69.281 159.344C69.281 159.469 69.3822 159.57 69.507 159.57C69.6319 159.57 69.7333 159.469 69.7333 159.344Z" fill="white"/>
<path d="M195.255 218.767C195.255 218.545 195.075 218.365 194.853 218.365C194.631 218.365 194.451 218.545 194.451 218.767C194.451 218.989 194.631 219.169 194.853 219.169C195.075 219.169 195.255 218.989 195.255 218.767Z" fill="white"/>
<path d="M144.464 131.85C144.464 131.434 144.127 131.097 143.71 131.097C143.294 131.097 142.957 131.434 142.957 131.85C142.957 132.267 143.294 132.604 143.71 132.604C144.127 132.604 144.464 132.267 144.464 131.85Z" fill="white"/>
<path d="M126.16 162.167L125.819 163.76L125.478 162.167L124.272 161.786L125.478 161.406L125.819 159.813L126.16 161.406L127.366 161.786L126.16 162.167Z" fill="white"/>
<path d="M102.899 135.794L102.557 137.387L102.216 135.794L101.01 135.414L102.216 135.033L102.557 133.44L102.899 135.033L104.104 135.414L102.899 135.794Z" fill="white"/>
<path opacity="0.5" d="M119.195 195.258L118.641 197.847L118.086 195.258L116.127 194.64L118.086 194.021L118.641 191.433L119.195 194.021L121.154 194.64L119.195 195.258Z" fill="white"/>
<path d="M160.715 212.583L159.928 216.26L159.139 212.583L156.357 211.705L159.139 210.827L159.928 207.149L160.715 210.827L163.498 211.705L160.715 212.583Z" fill="white"/>
<path opacity="0.5" d="M194.278 169.808L193.966 171.266L193.653 169.808L192.55 169.461L193.653 169.112L193.966 167.655L194.278 169.112L195.381 169.461L194.278 169.808Z" fill="white"/>
<path d="M169.857 66.0577C169.857 65.6692 169.542 65.3542 169.154 65.3542C168.765 65.3542 168.45 65.6692 168.45 66.0577C168.45 66.4462 168.765 66.7611 169.154 66.7611C169.542 66.7611 169.857 66.4462 169.857 66.0577Z" fill="white"/>
<path d="M149.989 135.86C150.161 136.897 149.46 137.877 148.422 138.05C147.385 138.222 146.405 137.521 146.233 136.483C146.06 135.446 146.762 134.466 147.799 134.294C148.836 134.121 149.816 134.822 149.989 135.86Z" fill="white"/>
<path d="M153.77 132.791C153.856 133.309 153.506 133.8 152.987 133.886C152.468 133.972 151.978 133.621 151.892 133.103C151.806 132.584 152.157 132.094 152.675 132.008C153.194 131.922 153.684 132.272 153.77 132.791Z" fill="white"/>
<path d="M157.969 130.296C158.084 130.987 157.616 131.641 156.925 131.756C156.233 131.871 155.58 131.403 155.465 130.711C155.35 130.02 155.817 129.366 156.509 129.252C157.2 129.137 157.854 129.604 157.969 130.296Z" fill="white"/>
<path d="M110.288 91.1907C117.857 89.1197 126.355 90.7861 132.582 95.5624C133.931 96.5975 135.301 98.2112 134.717 99.8084C134.085 101.539 131.764 101.758 129.924 101.667C126.593 101.504 123.222 101.3 120.046 100.284C116.869 99.2677 113.86 97.3405 112.206 94.4446" fill="#F2F2F2"/>
<path d="M94.5311 90.8619C84.3592 96.9938 84.3784 115.106 91.1291 126.304C91.2433 126.493 91.3637 126.674 91.4813 126.859L91.4593 126.852C91.4593 126.852 97.739 137.334 106.344 144.634C113.446 150.659 119.98 153.418 123.215 153.793C125.785 154.09 128.86 153.188 125.389 148.512C122.627 144.792 116.691 136.432 121.069 134.312C125.447 132.193 128.881 141.888 130.117 145.098C132.938 152.422 135.708 146.804 135.708 146.804C140.44 128.611 130.078 111.507 126.862 106.783C126.295 105.617 125.207 103.964 124.325 102.96C116.54 94.0984 104.703 84.7299 94.5311 90.8619Z" fill="#F2F2F2"/>
<path d="M98.856 107.745L111.63 100.22L119.345 105.619L102.765 116.817L98.856 107.745Z" fill="#C5D6F1"/>
<path d="M110.347 71.6261C104.169 61.3778 89.1001 56.7257 78.0031 63.415C66.9061 70.1047 63.984 85.6026 70.1622 95.8509C76.3401 106.099 89.5452 107.659 100.642 100.969C111.739 94.2796 116.525 81.8744 110.347 71.6261Z" fill="#F2F2F2"/>
<path d="M108.1 74.3897C103.61 66.942 92.1 63.3504 83.6454 68.447C75.1908 73.5438 72.9927 85.3988 77.4822 92.8465C81.9721 100.294 91.7034 100.936 100.158 95.8392C108.613 90.7426 112.589 81.8373 108.1 74.3897Z" fill="#D3D3D3"/>
<path d="M88.0742 75.2528C86.8817 73.2746 83.8243 72.3206 81.5786 73.6742C79.3328 75.0282 78.749 78.1772 79.9415 80.1554C81.1341 82.1336 83.719 82.3041 85.9648 80.9502C88.2108 79.5966 89.2668 77.231 88.0742 75.2528Z" fill="#F2F2F2"/>
<path d="M82.8049 84.905C82.2436 83.9741 80.805 83.5251 79.7481 84.1622C78.6913 84.7993 78.4165 86.2812 78.9778 87.2123C79.5391 88.1435 80.7554 88.2234 81.8122 87.5863C82.869 86.9492 83.3659 85.8361 82.8049 84.905Z" fill="#F2F2F2"/>
<path d="M96.3274 119.67C95.7778 118.621 94.2048 118.992 93.1391 119.508C92.8604 119.643 92.5808 119.781 92.3021 119.92C92.2971 119.013 92.2481 118.072 92.1488 117.109C91.4646 110.469 88.713 105.313 86.003 105.592C83.2929 105.872 81.6505 111.48 82.3347 118.12C82.9668 124.253 85.3631 129.111 87.8611 129.597L87.88 129.65C91.1854 130.469 95.8023 124.956 96.4274 120.978C96.4963 120.538 96.5339 120.065 96.3274 119.67Z" fill="#F2F2F2"/>
<path d="M120.245 145.674C121.844 147.288 122.393 149.338 121.47 150.252C120.547 151.166 118.503 150.599 116.903 148.984C115.304 147.37 114.756 145.32 115.679 144.406C116.602 143.492 118.646 144.059 120.245 145.674Z" fill="#C5D6F1"/>
<path d="M87.6378 124.607C88.8448 123.679 90.2534 123.486 90.7837 124.176C91.3141 124.866 90.7656 126.178 89.5586 127.106C88.3515 128.034 86.943 128.227 86.4126 127.536C85.8822 126.847 86.4307 125.535 87.6378 124.607Z" fill="#C5D6F1"/>
<path d="M131.119 96.4007C132.429 97.136 133.125 98.3843 132.674 99.1891C132.222 99.994 130.794 100.05 129.484 99.3151C128.174 98.5799 127.478 97.3316 127.929 96.5267C128.381 95.7221 129.809 95.6655 131.119 96.4007Z" fill="#C5D6F1"/>
<path d="M133.922 142.588C135.197 142.341 135.88 140.332 135.447 138.101C135.014 135.87 133.63 134.263 132.355 134.51C131.08 134.758 130.397 136.766 130.83 138.997C131.262 141.228 132.647 142.836 133.922 142.588Z" fill="#C5D6F1"/>
<mask id="mask0_0_4152" style="mask-type:alpha" maskUnits="userSpaceOnUse" x="75" y="66" width="36" height="34">
<path fill-rule="evenodd" clip-rule="evenodd" d="M108.331 74.546C103.841 67.0983 92.3311 63.5067 83.8765 68.6033C75.4218 73.7002 73.2237 85.5552 77.7133 93.0029C82.2031 100.451 91.9345 101.092 100.389 95.9955C108.844 90.899 112.82 81.9937 108.331 74.546Z" fill="white"/>
</mask>
<g mask="url(#mask0_0_4152)">
<path d="M80.1754 100.408C80.5711 100.042 80.7974 99.5495 81.0853 99.1117C81.2536 99.5314 81.3024 100.034 81.4128 100.438C81.5555 100.959 81.7258 101.477 81.915 101.984C82.3381 103.116 82.8996 104.225 83.5983 105.213C83.8414 105.557 84.4431 105.584 84.688 105.222C85.1925 104.475 85.4246 103.647 85.8001 102.839C86.1192 102.153 86.5634 101.52 87.0456 100.924C87.101 101.179 87.1403 101.439 87.1916 101.692C87.2903 102.179 87.8622 102.492 88.2897 102.149C88.4965 101.983 90.1196 100.759 90.6968 100.235C90.733 100.262 90.7659 100.286 90.7851 100.301C91.0006 100.469 91.2339 100.619 91.5039 100.678C92.5039 100.895 93.5055 100.091 94.2012 99.3385C94.4018 99.4405 94.5961 99.5183 94.8873 99.4703C95.3923 99.3873 95.5319 99.0177 95.8828 98.7365C96.6757 98.1011 97.9157 99.3126 98.7841 98.5693C99.1503 98.2561 99.1461 97.7157 99.4583 97.3514C100.103 96.5995 100.462 97.1803 101.203 96.9668C101.81 96.7918 102.026 96.253 102.171 95.6842C103.303 95.1232 106.009 93.9839 105.73 92.6578C105.822 92.6216 105.914 92.5856 106.005 92.5494C106.255 92.4452 106.522 92.3869 106.77 92.2771C107.096 92.1333 107.43 91.9444 107.651 91.6565C108.101 91.0695 108.105 90.4006 108.891 90.0609C109.467 89.8117 110.11 89.707 110.703 89.4993C111.185 89.3302 111.269 88.6164 110.864 88.3218C110.488 88.0487 110.069 87.8174 109.68 87.5512C111.067 86.9835 112.445 86.5504 113.966 86.3511C114.811 86.2405 116.125 85.9938 115.852 84.8517C115.632 83.9306 114.695 83.0661 114.082 82.3847C113.202 81.4056 112.162 80.671 111.057 80.0132C111.912 79.7931 112.805 79.6844 113.637 79.3611C114.052 79.2 114.185 78.6557 113.922 78.3093C113.402 77.6253 112.673 77.1608 111.994 76.6491C111.542 76.3079 111.084 75.9755 110.593 75.6912C110.559 75.6717 110.525 75.6538 110.49 75.6354C110.71 75.5775 110.931 75.5189 111.149 75.4482C111.624 75.294 111.727 74.5466 111.31 74.2709C109.449 73.0385 107.133 72.3847 105.105 71.4538C103.457 70.6974 101.695 70.0241 99.8629 70.1247C99.8426 69.3831 99.8326 68.6406 99.8317 67.8965C99.8303 66.5939 99.7955 65.291 99.6874 63.9922C99.5954 62.8869 99.3423 61.7816 99.3108 60.6751C99.303 60.3981 99.164 60.2267 98.9772 60.1484C98.7097 59.8719 98.2601 59.7933 97.9934 60.2041C97.8184 60.4736 97.6437 60.7476 97.4683 61.0241C97.1559 60.7448 96.5762 60.7242 96.3402 61.2197C96.2393 61.431 96.1284 61.6403 96.0113 61.8479C95.7736 61.7646 95.5032 61.8156 95.3168 62.0934C94.4269 63.4192 93.4685 64.9445 92.8392 66.4821C92.626 66.2266 92.2497 66.0936 91.896 66.3316C91.1558 66.8302 90.3189 67.1624 89.5756 67.6493C89.3041 67.4475 88.897 67.4085 88.6107 67.7329C88.3616 68.0155 88.1657 68.3288 87.9878 68.6529C87.6654 68.4868 87.2248 68.5364 87.0364 68.9634C86.9068 69.2577 86.8109 69.5617 86.7262 69.8692C85.5554 70.4137 84.3809 70.9394 83.2932 71.6506C82.8104 71.9661 82.9958 72.5357 83.3865 72.7654C82.7394 73.1991 82.0908 73.631 81.4376 74.0555C81.1455 74.2453 81.0992 74.5284 81.1926 74.774C79.8125 74.8322 78.4368 75.1697 77.0968 75.4621C75.6289 75.7818 74.0072 75.7717 72.6201 76.3801C72.2709 76.5334 72.1706 76.8564 72.2333 77.1463C71.6851 77.2915 71.1332 77.4208 70.5708 77.51C70.1698 77.5735 69.9931 77.8954 70.0014 78.2115C69.9872 78.2148 69.973 78.2187 69.9588 78.2218C69.6185 78.299 69.2869 78.608 69.368 78.9952C69.667 80.424 71.597 81.7161 72.7146 82.4636C73.823 83.2046 74.9497 83.9326 76.0202 84.7283C76.3346 84.9618 76.6629 85.1834 76.9909 85.4063C76.4505 86.7851 76.2869 88.2867 76.336 89.7658C76.3906 91.4137 76.5902 93.3613 77.2546 94.8807C77.4162 95.2506 77.9725 95.4791 78.3064 95.1653C78.3234 95.1491 78.3404 95.1307 78.3571 95.1118C78.3538 95.1597 78.3499 95.2085 78.3488 95.2533C78.3371 95.7709 78.3348 96.2893 78.3802 96.8049C78.4797 97.9358 78.7543 99.0515 79.1238 100.122C79.259 100.515 79.8593 100.701 80.1754 100.408Z" fill="#FFBE55"/>
<path d="M70.2657 79.4664C70.2194 79.1802 70.4507 78.8564 70.7481 78.8352C72.2489 78.7279 73.7751 79.3023 75.2131 79.6682C75.9213 79.8483 76.605 80.0857 77.3012 80.3048C77.9622 80.5127 78.5787 80.722 79.0695 81.2281C79.3231 81.4895 79.2197 81.7902 78.9915 81.9586C79.0154 82.0698 79.0082 82.1871 78.9605 82.2924C78.7038 82.8576 78.1359 84.1171 77.4218 84.2222C77.0682 84.2743 76.7583 84.0477 76.474 83.8746C75.9865 83.5775 75.5205 83.2537 75.0189 82.9792C74.0376 82.4424 73.0095 81.9906 72.0948 81.3393C71.48 80.9012 70.3969 80.278 70.2657 79.4664Z" fill="#F2F2F2"/>
<path d="M96.2797 68.9163C96.88 66.8879 96.7858 64.6828 97.5433 62.6949C97.7164 62.2406 98.1935 61.7253 98.6043 61.9396C98.8431 62.0068 99.0388 62.2194 98.9911 62.4925C99.0739 62.8039 99.0321 63.1511 99.0235 63.4646C99.0081 64.0399 99.0182 64.6084 98.9557 65.1806C98.9805 65.4557 99.0081 65.7305 99.0424 66.005C99.1096 66.5426 99.1625 67.076 99.1781 67.6181C99.1946 68.1886 99.3128 68.8051 99.2372 69.3722C99.1118 70.3151 98.2177 70.3906 97.4343 70.3357C97.0893 70.3115 96.6813 70.3318 96.4235 70.0601C96.1205 69.7407 96.1648 69.3048 96.2797 68.9163Z" fill="#F2F2F2"/>
<path d="M92.6859 83.169C95.0378 81.5227 97.8268 80.1955 100.505 80.5001C103.183 80.8048 105.457 82.9432 105.205 85.5663C105.043 87.2519 103.938 88.836 102.706 90.1886C101.097 91.9561 99.1679 93.5193 96.9653 94.4652C94.7627 95.4111 92.2675 95.694 90.1993 94.9579C88.3156 94.2874 83.5222 89.5838 92.6859 83.169Z" fill="#F2F2F2"/>
<path d="M97.3391 89.3276C96.282 88.2123 95.3826 86.957 94.6669 85.5973L94.3241 85.7776C95.0565 87.1686 95.9762 88.4528 97.0579 89.5938L97.3391 89.3276Z" fill="black"/>
<path d="M95.8901 86.0429C96.1301 85.7678 96.5581 86.1402 96.3179 86.4158C96.0777 86.6912 95.6496 86.3185 95.8901 86.0429Z" fill="#F2F2F2"/>
<path d="M96.9054 87.4353C97.1453 87.1602 97.5734 87.5328 97.3329 87.8082C97.0929 88.0835 96.6651 87.7109 96.9054 87.4353Z" fill="#F2F2F2"/>
<path d="M98.2637 85.983C98.5037 85.7076 98.9318 86.0802 98.6913 86.3559C98.4516 86.6312 98.0235 86.2586 98.2637 85.983Z" fill="#F2F2F2"/>
<path d="M94.2491 87.1192C94.4891 86.8442 94.9172 87.2165 94.6766 87.4921C94.4367 87.7672 94.0086 87.3949 94.2491 87.1192Z" fill="#F2F2F2"/>
<path d="M95.2371 88.571C95.4771 88.2956 95.9052 88.6682 95.6647 88.9439C95.425 89.219 94.9969 88.8463 95.2371 88.571Z" fill="#F2F2F2"/>
<path d="M93.7076 89.0138C93.9476 88.7388 94.3757 89.1111 94.1351 89.3867C93.8952 89.6621 93.4671 89.2897 93.7076 89.0138Z" fill="#F2F2F2"/>
<path d="M92.5039 85.3169C92.4615 84.9027 92.8001 84.6884 93.09 84.4766C93.319 84.3091 93.5242 84.1112 93.753 83.9426C94.2733 83.5597 95.2468 83.1478 95.5746 83.9998C95.6501 84.1962 95.6356 84.4175 95.5712 84.631C95.6002 84.9521 95.5121 85.2865 95.3903 85.5817C95.2362 85.9554 94.9979 86.4024 94.5548 86.4621C94.1641 86.5145 93.7006 86.3252 93.3466 86.1744C92.9843 86.02 92.5482 85.7525 92.5039 85.3169Z" fill="#FF5EB3"/>
<path d="M106.604 76.8263C105.922 76.7906 105.272 76.7731 104.676 76.7583C104.076 76.7486 103.536 76.7399 103.079 76.7327C102.159 76.7098 101.55 76.6421 101.489 76.3957C101.43 76.1616 101.948 75.7876 102.89 75.478C103.125 75.4016 103.385 75.3266 103.669 75.2673C103.952 75.1996 104.258 75.1536 104.582 75.1076C105.23 75.0282 105.95 74.995 106.703 75.0346C107.457 75.0789 108.169 75.1917 108.804 75.3425C109.12 75.4242 109.419 75.5039 109.693 75.6026C109.968 75.6931 110.219 75.7965 110.444 75.8985C111.346 76.3107 111.819 76.7399 111.734 76.9659C111.647 77.204 111.033 77.2037 110.116 77.1242C109.662 77.0811 109.124 77.0298 108.527 76.9729C107.933 76.9208 107.285 76.8665 106.604 76.8263Z" fill="#FF9843"/>
<path d="M104.338 77.998C104.985 77.8015 105.915 77.6998 106.93 77.8015C107.945 77.9046 108.835 78.1906 109.43 78.5127C110.028 78.8349 110.334 79.1791 110.257 79.4113C110.179 79.6493 109.744 79.7362 109.116 79.7418C108.485 79.7462 107.658 79.6796 106.749 79.5868C105.841 79.496 105.017 79.3956 104.4 79.2652C103.786 79.1339 103.377 78.9617 103.348 78.7128C103.319 78.4701 103.688 78.1942 104.338 77.998Z" fill="#FF9843"/>
<path d="M107.43 82.3931C106.7 82.1606 106.225 81.9391 106.229 81.6868C106.232 81.4441 106.727 81.2153 107.553 81.13C107.965 81.086 108.457 81.0865 109 81.137C109.541 81.1921 110.133 81.3 110.737 81.4736C111.341 81.6509 111.898 81.8766 112.385 82.1202C112.87 82.3683 113.286 82.6313 113.611 82.8894C114.263 83.4039 114.559 83.8624 114.431 84.0689C114.298 84.2837 113.779 84.2169 113.038 84.0215C112.667 83.922 112.236 83.7971 111.765 83.6528C111.295 83.5126 110.779 83.3585 110.237 83.1971C109.693 83.0435 109.175 82.8972 108.703 82.7637C108.227 82.6333 107.796 82.5079 107.43 82.3931Z" fill="#FF9843"/>
<path d="M109.253 84.0115C110.379 84.3152 111.188 84.949 111.059 85.4275C110.93 85.9061 109.912 86.0476 108.786 85.7441C107.66 85.4406 106.852 84.8066 106.981 84.3278C107.11 83.8495 108.128 83.708 109.253 84.0115Z" fill="#FF9843"/>
<path d="M84.3857 100.618C84.4651 100.073 84.6022 99.4801 84.8096 98.8784C85.0208 98.2778 85.2817 97.7279 85.5576 97.2516C85.8388 96.7773 86.132 96.3751 86.4149 96.0663C86.9795 95.4454 87.4639 95.1848 87.6587 95.3283C87.8627 95.4777 87.7521 95.9913 87.5032 96.7187C87.3767 97.0824 87.2228 97.505 87.0486 97.9668C86.8792 98.4308 86.6922 98.9352 86.5043 99.4684C86.3204 100.003 86.1537 100.514 85.9982 100.983C85.848 101.453 85.7062 101.88 85.5796 102.244C85.3229 102.968 85.0908 103.44 84.838 103.43C84.5958 103.422 84.3781 102.916 84.3213 102.079C84.2915 101.661 84.3113 101.164 84.3857 100.618Z" fill="#FF9843"/>
<path d="M84.6962 96.6048C84.2965 97.2678 83.9078 97.8564 83.5616 98.275C83.2157 98.6914 82.9036 98.9355 82.6659 98.8564C82.4334 98.7792 82.3228 98.3815 82.388 97.7923C82.4515 97.2056 82.7038 96.4328 83.1603 95.6761C83.6182 94.92 84.1853 94.3378 84.6753 94.009C85.1666 93.6776 85.5702 93.5909 85.7466 93.7609C85.9269 93.9345 85.8561 94.3244 85.6479 94.8242C85.4381 95.3253 85.0975 95.9428 84.6962 96.6048Z" fill="#FF9843"/>
<path d="M79.9302 96.1889C79.9739 95.9766 80.0319 95.7458 80.1172 95.5064C80.1936 95.2625 80.3028 95.0142 80.4207 94.7525C80.669 94.2367 80.9984 93.694 81.412 93.1756C81.8295 92.6609 82.2891 92.2225 82.7398 91.8694C82.9702 91.6983 83.1896 91.538 83.4111 91.4112C83.6269 91.2769 83.8398 91.1707 84.0379 91.0823C84.8342 90.7312 85.4005 90.7119 85.5092 90.9254C85.626 91.1517 85.2896 91.5623 84.7623 92.1241C84.6302 92.2654 84.4841 92.4137 84.3336 92.5787C84.1773 92.7359 84.022 92.9151 83.8518 93.0929C83.5212 93.4596 83.1659 93.8624 82.8103 94.3002C82.4588 94.7417 82.1417 95.1748 81.8543 95.5761C81.7169 95.7804 81.5756 95.9704 81.4552 96.1569C81.3262 96.3392 81.213 96.5136 81.103 96.6728C80.6673 97.3085 80.3385 97.7251 80.0921 97.6594C79.8602 97.5994 79.7577 97.042 79.9302 96.1889Z" fill="#FF9843"/>
<path d="M82.2188 90.8644C81.8445 91.2549 81.4955 91.6333 81.1731 91.9797C80.8554 92.3295 80.5616 92.6458 80.3066 92.9134C79.7941 93.4451 79.4008 93.7682 79.1731 93.6584C78.9546 93.5541 78.9491 93.019 79.2233 92.2526C79.3587 91.8694 79.5717 91.4363 79.8543 90.9826C80.1413 90.5322 80.5006 90.0634 80.9281 89.6181C81.3584 89.1752 81.8144 88.7998 82.2544 88.4974C82.6981 88.1992 83.1237 87.9712 83.5016 87.8224C84.2583 87.5214 84.7931 87.5083 84.9049 87.7229C85.0225 87.9467 84.7134 88.3508 84.2 88.8817C83.9414 89.1459 83.6357 89.4506 83.2973 89.7803C82.9618 90.1147 82.5958 90.477 82.2188 90.8644Z" fill="#FF9843"/>
<path d="M97.0474 77.0613C97.2684 77.4172 97.4357 78.1228 97.3086 78.5219C97.1653 78.9723 96.6464 79.2281 96.1757 79.1822C95.7052 79.1362 95.2888 78.8483 94.9658 78.5033C94.6615 78.1786 94.4151 77.7848 94.3376 77.3464C94.2602 76.908 94.341 76.3871 94.693 76.1145C95.679 75.3501 96.6074 76.3523 97.0474 77.0613Z" fill="black"/>
<path d="M96.7215 77.8043C96.5807 77.9294 96.3497 77.9247 96.2003 77.8099C95.9141 77.59 95.9893 77.0234 96.4023 77.0431C96.7549 77.0602 97.0107 77.5473 96.7215 77.8043Z" fill="#F2F2F2"/>
<path d="M86.6071 84.1681C86.8281 84.524 86.9954 85.2297 86.8683 85.6288C86.725 86.0791 86.2061 86.335 85.7354 86.289C85.2649 86.243 84.8485 85.9551 84.5255 85.6101C84.2212 85.2854 83.9748 84.8916 83.8973 84.4532C83.8199 84.0148 83.9007 83.4939 84.2527 83.2211C85.2387 82.4572 86.1668 83.4594 86.6071 84.1681Z" fill="black"/>
<path d="M86.281 84.9114C86.1403 85.0365 85.9092 85.0318 85.7599 84.917C85.4736 84.6971 85.5489 84.1305 85.9619 84.1503C86.3142 84.1673 86.5703 84.6541 86.281 84.9114Z" fill="#F2F2F2"/>
<path d="M107.923 84.7495C106.939 84.5507 105.844 84.3938 104.686 84.3331C103.528 84.2838 102.424 84.3364 101.425 84.4409C100.928 84.5084 100.453 84.5616 100.016 84.6539C99.7963 84.6968 99.5825 84.7286 99.3805 84.7759C99.1787 84.8241 98.985 84.8704 98.7999 84.9147C98.4273 84.9939 98.1007 85.1034 97.8092 85.1842C97.664 85.2271 97.5274 85.2628 97.4039 85.3018C97.2813 85.3436 97.1693 85.3815 97.0681 85.4158C96.6634 85.551 96.4349 85.617 96.4271 85.5981C96.419 85.5791 96.6328 85.4766 97.0274 85.3069C97.1266 85.2648 97.2367 85.2182 97.3568 85.1672C97.4786 85.1196 97.6135 85.0758 97.7573 85.0251C98.0466 84.9281 98.3724 84.8032 98.7456 84.7102C98.9312 84.6594 99.1257 84.6062 99.3284 84.551C99.5315 84.4972 99.7467 84.4593 99.9677 84.4106C100.409 84.3066 100.889 84.2431 101.392 84.1673C102.403 84.0457 103.525 83.9841 104.701 84.0343C105.876 84.0959 106.986 84.2637 107.981 84.4802C108.476 84.6034 108.947 84.7121 109.377 84.8573C109.592 84.9267 109.803 84.985 110 85.0577C110.196 85.1321 110.385 85.2032 110.565 85.2715C110.927 85.3997 111.24 85.5546 111.519 85.6786C111.657 85.7427 111.787 85.7993 111.904 85.8581C112.019 85.9203 112.124 85.9771 112.219 86.0284C112.596 86.2346 112.798 86.357 112.789 86.3754C112.779 86.3935 112.558 86.3063 112.168 86.1332C112.07 86.0894 111.963 86.0407 111.844 85.9877C111.725 85.937 111.593 85.8885 111.452 85.8322C111.17 85.7238 110.855 85.5842 110.491 85.4699C110.311 85.4083 110.123 85.3439 109.927 85.2768C109.73 85.2104 109.52 85.1586 109.306 85.095C108.879 84.9615 108.411 84.8637 107.923 84.7495Z" fill="#F2F2F2"/>
<path d="M97.8047 86.498C97.9483 86.5036 98.1035 86.5161 98.2707 86.5264C98.6049 86.5512 98.987 86.5682 99.4056 86.6243C99.6155 86.6491 99.8351 86.675 100.064 86.702C100.293 86.7302 100.528 86.7748 100.774 86.8127C101.266 86.884 101.785 86.9988 102.332 87.1125C103.421 87.3642 104.605 87.6992 105.818 88.1404C107.027 88.5905 108.147 89.1033 109.139 89.6172C109.629 89.885 110.098 90.1336 110.52 90.3984C110.731 90.5283 110.94 90.6476 111.132 90.7741C111.324 90.902 111.508 91.0246 111.684 91.1417C112.039 91.3705 112.341 91.6052 112.612 91.8028C112.746 91.9031 112.872 91.9945 112.985 92.0831C113.096 92.1743 113.197 92.2576 113.288 92.3329C113.651 92.6344 113.845 92.8083 113.832 92.8245C113.819 92.8406 113.601 92.6974 113.218 92.4254C113.122 92.3568 113.016 92.281 112.9 92.198C112.782 92.1183 112.653 92.0319 112.515 91.9391C112.237 91.7554 111.928 91.5347 111.568 91.319C111.39 91.208 111.204 91.0915 111.01 90.9703C110.816 90.8499 110.607 90.7365 110.394 90.6124C109.971 90.3591 109.502 90.1211 109.013 89.8622C108.023 89.3664 106.912 88.8667 105.715 88.421C104.514 87.9843 103.344 87.6451 102.27 87.3809C101.729 87.2608 101.217 87.1379 100.731 87.0568C100.489 87.0136 100.256 86.964 100.03 86.93C99.8039 86.8966 99.5865 86.8645 99.3791 86.8338C98.9652 86.7647 98.5873 86.7332 98.2565 86.6928C98.0912 86.6739 97.9368 86.656 97.795 86.6399C97.6529 86.6279 97.523 86.6173 97.4056 86.6075C96.9377 86.5663 96.6785 86.5337 96.6791 86.5131C96.6796 86.4924 96.9402 86.4858 97.4121 86.4913C97.5302 86.4933 97.6612 86.4955 97.8047 86.498Z" fill="#F2F2F2"/>
<path d="M99.2318 85.7274C97.4969 85.8381 96.4453 86.1151 96.4339 86.0593C96.4294 86.0415 96.687 85.9559 97.1641 85.842C97.6409 85.7271 98.341 85.5989 99.2159 85.5164C100.09 85.4328 101.141 85.4116 102.301 85.5142C103.46 85.6157 104.725 85.8534 106.008 86.2583C107.288 86.6714 108.456 87.2104 109.46 87.799C110.465 88.3868 111.309 89.0133 111.974 89.588C112.639 90.1621 113.135 90.6721 113.457 91.0419C113.78 91.4112 113.94 91.63 113.927 91.642C113.885 91.6807 113.189 90.8457 111.838 89.7507C110.498 88.6554 108.442 87.348 105.917 86.5434C103.392 85.7369 100.959 85.6115 99.2318 85.7274Z" fill="#F2F2F2"/>
<path d="M95.503 101.838C95.4169 101.589 95.3118 101.308 95.2207 100.99C95.173 100.831 95.1231 100.664 95.071 100.491C95.02 100.318 94.9768 100.134 94.9272 99.9455C94.8241 99.5693 94.7407 99.1607 94.6488 98.7318C94.481 97.8706 94.3383 96.9152 94.255 95.9052C94.178 94.8949 94.1683 93.9287 94.1981 93.0519C94.2215 92.6138 94.2394 92.1971 94.2817 91.8095C94.3009 91.6155 94.3149 91.4276 94.3377 91.2482C94.3617 91.069 94.3848 90.8967 94.4069 90.7323C94.4467 90.4031 94.5061 90.1088 94.5518 89.8499C94.5961 89.5905 94.6454 89.3692 94.6903 89.1894C94.7767 88.8291 94.8338 88.6326 94.8539 88.6368C94.9027 88.6465 94.7513 89.4497 94.6167 90.7579C94.6011 90.9215 94.5844 91.0929 94.5671 91.2713C94.5504 91.4497 94.5426 91.6364 94.5286 91.829C94.4974 92.2141 94.4888 92.6266 94.4732 93.0605C94.459 93.9287 94.4768 94.8832 94.5526 95.8818C94.6351 96.8801 94.768 97.8255 94.9191 98.6805C95.003 99.1064 95.0763 99.5124 95.168 99.8878C95.212 100.076 95.2491 100.259 95.2939 100.432C95.3391 100.606 95.3823 100.772 95.4238 100.932C95.763 102.202 96.0392 102.971 95.9924 102.989C95.9731 102.996 95.8856 102.811 95.7435 102.469C95.6713 102.298 95.5877 102.087 95.503 101.838Z" fill="#F2F2F2"/>
<path d="M91.4637 101.038C91.2787 99.6047 91.0549 97.5978 91.2154 95.3751C91.3018 94.2656 91.4874 93.2161 91.7516 92.2872C92.0156 91.358 92.3489 90.5495 92.6939 89.9059C93.0376 89.2616 93.3742 88.7739 93.6315 88.4581C93.8876 88.1415 94.049 87.984 94.0626 87.9955C94.1092 88.0303 93.5094 88.7087 92.8829 90.0015C92.5679 90.6451 92.2619 91.4449 92.0175 92.3602C91.7728 93.2754 91.5986 94.3066 91.5136 95.398C91.3556 97.5858 91.5429 99.5788 91.6739 101.015C91.7422 101.732 91.7973 102.313 91.8358 102.72C91.8704 103.123 91.8801 103.347 91.8598 103.35C91.8394 103.353 91.7904 103.134 91.7204 102.735C91.6505 102.335 91.5591 101.757 91.4637 101.038Z" fill="#F2F2F2"/>
<path d="M84.9919 99.46C85.051 99.2803 85.1285 99.0623 85.2296 98.8137C85.3294 98.5646 85.4375 98.2778 85.5786 97.9707C85.7143 97.6608 85.8656 97.3227 86.0451 96.9673C86.2154 96.6073 86.4197 96.2344 86.6309 95.84C87.0674 95.0585 87.5816 94.2177 88.1724 93.3699C88.7683 92.5254 89.3836 91.7554 89.9695 91.079C90.2685 90.7457 90.5494 90.4266 90.8298 90.144C91.1027 89.8544 91.3691 89.5969 91.6141 89.3636C91.8549 89.1261 92.0876 88.9272 92.288 88.7482C92.4872 88.5685 92.6659 88.4213 92.8147 88.3045C93.1101 88.0688 93.2796 87.9461 93.293 87.9617C93.325 87.9991 92.7007 88.5523 91.7629 89.5138C91.5291 89.7549 91.2735 90.0188 91.0107 90.3134C90.7404 90.601 90.4689 90.9235 90.1782 91.2585C89.6091 91.9385 89.0068 92.7055 88.4171 93.5416C87.8321 94.381 87.316 95.2085 86.8706 95.9755C86.6546 96.3626 86.4442 96.7279 86.2658 97.0799C86.0786 97.4272 85.9175 97.7577 85.7703 98.0596C85.1859 99.2688 84.8785 100.044 84.8325 100.027C84.8133 100.019 84.871 99.8184 84.9919 99.46Z" fill="#F2F2F2"/>
</g>
<path d="M97.8 91.37C98.4904 91.37 99.05 90.8103 99.05 90.12C99.05 89.4297 98.4904 88.87 97.8 88.87C97.1097 88.87 96.55 89.4297 96.55 90.12C96.55 90.8103 97.1097 91.37 97.8 91.37Z" fill="black"/>
<g opacity="0.7">
<path fill-rule="evenodd" clip-rule="evenodd" d="M67 209.25C71.5563 209.25 75.25 205.556 75.25 201C75.25 196.444 71.5563 192.75 67 192.75C62.4437 192.75 58.75 196.444 58.75 201C58.75 205.556 62.4437 209.25 67 209.25Z" fill="white"/>
<path fill-rule="evenodd" clip-rule="evenodd" d="M59.3785 200.958C59.3785 196.779 62.7786 193.378 66.9575 193.378C71.1365 193.378 74.5366 196.779 74.5366 200.958C74.5366 205.136 71.1368 208.537 66.9575 208.537C62.7783 208.537 59.3785 205.136 59.3785 200.958ZM66.9799 209.914C68.4642 209.911 69.8628 209.545 71.0943 208.902C72.4862 208.176 73.6625 207.095 74.505 205.779C75.0094 204.991 75.3956 204.121 75.6344 203.19C75.8176 202.476 75.9151 201.728 75.9151 200.958C75.9151 200.347 75.8536 199.752 75.7372 199.176C74.9111 195.082 71.2943 192 66.9575 192C62.0103 192 58 196.011 58 200.958C58 203.927 59.4463 206.558 61.6715 208.188C63.1536 209.273 64.9803 209.915 66.9575 209.915C66.9651 209.915 66.9723 209.914 66.9799 209.914Z" fill="#C5D6F1"/>
<path fill-rule="evenodd" clip-rule="evenodd" d="M63.5084 197.702C64.0954 197.168 65.0231 197.187 65.5889 197.744C66.0653 198.213 66.1639 198.917 65.8874 199.486L66.2994 199.898C66.7043 200.302 67.2726 200.499 67.8409 200.431L68.4196 200.361C68.5533 199.744 69.0661 199.25 69.7307 199.176C70.5197 199.088 71.2611 199.646 71.3921 200.429C71.5359 201.287 70.9335 202.082 70.079 202.185C69.4205 202.264 68.8114 201.907 68.5371 201.342L68.4562 201.352C67.663 201.447 67.0182 202.037 66.8532 202.819C67.3916 203.142 67.6932 203.78 67.5561 204.429C67.3782 205.271 66.5331 205.8 65.6908 205.581C64.9226 205.381 64.4325 204.593 64.5902 203.815C64.7232 203.16 65.2599 202.692 65.8869 202.614L65.9802 202.174C66.1106 201.556 65.9201 200.915 65.4738 200.469L65.189 200.184C64.6243 200.459 63.9247 200.363 63.4559 199.894C62.8473 199.286 62.8649 198.288 63.5084 197.702ZM74.5367 200.958C74.5367 196.779 71.1366 193.379 66.9576 193.379C62.7786 193.379 59.3785 196.779 59.3785 200.958C59.3785 205.137 62.7784 208.537 66.9576 208.537C71.1368 208.537 74.5367 205.137 74.5367 200.958Z" fill="#E0E9F8"/>
</g>
<g opacity="0.7">
<path fill-rule="evenodd" clip-rule="evenodd" d="M111 26.25C115.556 26.25 119.25 22.5563 119.25 18C119.25 13.4437 115.556 9.75 111 9.75C106.444 9.75 102.75 13.4437 102.75 18C102.75 22.5563 106.444 26.25 111 26.25Z" fill="white"/>
<path fill-rule="evenodd" clip-rule="evenodd" d="M103.378 17.9575C103.378 13.7786 106.779 10.3785 110.958 10.3785C115.136 10.3785 118.537 13.7786 118.537 17.9575C118.537 22.1365 115.137 25.5366 110.958 25.5366C106.778 25.5366 103.378 22.1365 103.378 17.9575ZM110.98 26.9145C112.464 26.9109 113.863 26.5447 115.094 25.9021C116.486 25.1758 117.662 24.0953 118.505 22.7791C119.009 21.9913 119.396 21.1208 119.634 20.1903C119.818 19.4765 119.915 18.7283 119.915 17.9575C119.915 17.3473 119.854 16.7516 119.737 16.1758C118.911 12.0823 115.294 9 110.958 9C106.01 9 102 13.0106 102 17.9575C102 20.9273 103.446 23.5583 105.672 25.1881C107.154 26.273 108.98 26.9151 110.958 26.9151C110.965 26.9151 110.972 26.9145 110.98 26.9145Z" fill="#C5D6F1"/>
<path fill-rule="evenodd" clip-rule="evenodd" d="M107.508 14.7022C108.095 14.1677 109.023 14.1867 109.589 14.7435C110.065 15.2127 110.164 15.9173 109.887 16.4856L110.299 16.8975C110.704 17.3022 111.273 17.4988 111.841 17.4306L112.42 17.3611C112.553 16.7436 113.066 16.2502 113.731 16.1759C114.52 16.0876 115.261 16.6459 115.392 17.429C115.536 18.2874 114.934 19.0822 114.079 19.185C113.42 19.264 112.811 18.9071 112.537 18.3422L112.456 18.3519C111.663 18.4472 111.018 19.037 110.853 19.8187C111.392 20.1418 111.693 20.7802 111.556 21.4292C111.378 22.2709 110.533 22.8004 109.691 22.5812C108.923 22.3809 108.432 21.5931 108.59 20.8151C108.723 20.1596 109.26 19.6924 109.887 19.6142L109.98 19.1738C110.111 18.5564 109.92 17.9149 109.474 17.4689L109.189 17.184C108.624 17.4586 107.925 17.3631 107.456 16.8942C106.847 16.2856 106.865 15.2884 107.508 14.7022ZM118.537 17.9576C118.537 13.7786 115.137 10.3786 110.958 10.3786C106.779 10.3786 103.379 13.7786 103.379 17.9576C103.379 22.1366 106.778 25.5367 110.958 25.5367C115.137 25.5367 118.537 22.1366 118.537 17.9576Z" fill="#E0E9F8"/>
</g>
<g opacity="0.7">
<path fill-rule="evenodd" clip-rule="evenodd" d="M202.689 38.6021C207.067 39.775 211.566 37.1772 212.739 32.7996C213.912 28.4221 211.314 23.9225 206.937 22.7495C202.559 21.5766 198.06 24.1744 196.887 28.552C195.714 32.9295 198.311 37.4291 202.689 38.6021Z" fill="white"/>
<path fill-rule="evenodd" clip-rule="evenodd" d="M212.047 32.6785C210.985 36.6432 206.895 39.0043 202.93 37.942C198.966 36.8797 196.604 32.79 197.667 28.8252C198.729 24.8607 202.819 22.4994 206.783 23.5618C210.748 24.624 213.109 28.7137 212.047 32.6785ZM207.134 22.2543C202.441 20.9967 197.617 23.7819 196.359 28.4751C195.101 33.1684 197.887 37.9924 202.58 39.25C202.653 39.2695 202.726 39.2852 202.799 39.3026C203.352 39.436 203.905 39.5144 204.454 39.5401C206.512 39.6363 208.498 39.0008 210.097 37.8162C211.638 36.6746 212.82 35.0254 213.354 33.0291C213.889 31.0327 213.691 29.0138 212.927 27.2546C211.895 24.8782 209.831 22.9769 207.134 22.2543Z" fill="#C5D6F1"/>
<path fill-rule="evenodd" clip-rule="evenodd" d="M204.631 31.5944L202.345 29.6676L206.086 26.1636L207.574 31.0687L204.631 31.5944ZM203.627 35.3403L202.139 30.4352L204.295 32.8468L207.368 31.8363L203.627 35.3403ZM206.783 23.5617C202.819 22.4993 198.729 24.8607 197.667 28.8252C196.604 32.7899 198.965 36.8796 202.93 37.9419C206.895 39.0042 210.985 36.6431 212.047 32.6784C213.109 28.7137 210.748 24.624 206.783 23.5617Z" fill="#E0E9F8"/>
</g>
<g opacity="0.7">
<path fill-rule="evenodd" clip-rule="evenodd" d="M29.4673 43.5528C33.726 42.0028 35.9218 37.2939 34.3718 33.0352C32.8217 28.7765 28.1129 26.5808 23.8542 28.1308C19.5955 29.6808 17.3997 34.3897 18.9498 38.6484C20.4998 42.907 25.2087 45.1028 29.4673 43.5528Z" fill="white"/>
<path fill-rule="evenodd" clip-rule="evenodd" d="M33.7354 33.3329C35.1392 37.1899 33.1433 41.4699 29.2864 42.8736C25.4294 44.2775 21.1493 42.2819 19.7454 38.4248C18.3417 34.568 20.3376 30.2878 24.1946 28.884C28.0514 27.4802 32.3315 29.4758 33.7354 33.3329ZM23.7317 27.612C19.1659 29.2738 16.8118 34.3222 18.4736 38.888C20.1354 43.4538 25.1838 45.8079 29.7496 44.1461C29.8206 44.1202 29.8894 44.0911 29.9593 44.0635C30.4887 43.8557 30.987 43.6025 31.4509 43.309C33.1919 42.2074 34.4547 40.5474 35.0849 38.6599C35.6926 36.8409 35.7143 34.8123 35.0074 32.8702C34.3005 30.928 32.98 29.388 31.3452 28.3852C29.1371 27.0303 26.3553 26.6571 23.7317 27.612Z" fill="#C5D6F1"/>
<path fill-rule="evenodd" clip-rule="evenodd" d="M27.0388 36.6985L24.0612 36.4313L25.1159 31.4152L29.1481 34.5798L27.0388 36.6985ZM28.3652 40.3426L24.333 37.178L27.4823 37.9169L29.4199 35.3265L28.3652 40.3426ZM24.1946 28.8839C20.3375 30.2878 18.3419 34.5679 19.7456 38.4247C21.1495 42.2817 25.4293 44.2775 29.2864 42.8736C33.1432 41.4699 35.1392 37.1899 33.7353 33.3329C32.3315 29.4758 28.0514 27.4802 24.1946 28.8839Z" fill="#E0E9F8"/>
</g>
<g opacity="0.7">
<path fill-rule="evenodd" clip-rule="evenodd" d="M137.044 217.888C141.559 218.283 145.539 214.943 145.934 210.428C146.329 205.914 142.989 201.934 138.474 201.539C133.96 201.144 129.98 204.483 129.585 208.998C129.19 213.513 132.529 217.493 137.044 217.888Z" fill="white"/>
<path fill-rule="evenodd" clip-rule="evenodd" d="M145.231 210.429C144.874 214.518 141.256 217.554 137.167 217.196C133.078 216.838 130.043 213.221 130.4 209.132C130.758 205.043 134.376 202.007 138.465 202.365C142.553 202.723 145.589 206.34 145.231 210.429ZM138.583 201.017C133.742 200.593 129.475 204.174 129.052 209.014C128.628 213.854 132.209 218.121 137.049 218.545C137.125 218.551 137.199 218.554 137.274 218.559C137.842 218.594 138.4 218.575 138.945 218.505C140.988 218.243 142.834 217.272 144.203 215.828C145.523 214.436 146.4 212.606 146.58 210.547C146.76 208.489 146.214 206.535 145.156 204.935C143.728 202.774 141.364 201.26 138.583 201.017Z" fill="#C5D6F1"/>
<path fill-rule="evenodd" clip-rule="evenodd" d="M137.74 210.649L135.154 209.149L138.23 205.048L140.547 209.621L137.74 210.649ZM137.402 214.513L135.085 209.94L137.627 211.941L140.478 210.412L137.402 214.513ZM138.465 202.365C134.376 202.007 130.758 205.043 130.401 209.132C130.043 213.221 133.078 216.838 137.167 217.196C141.256 217.554 144.874 214.518 145.231 210.429C145.589 206.34 142.553 202.723 138.465 202.365Z" fill="#E0E9F8"/>
</g>
<g opacity="0.7">
<path fill-rule="evenodd" clip-rule="evenodd" d="M12.2603 144.48C16.3657 145.204 19.1167 149.132 18.3928 153.238C17.6689 157.343 13.74 160.094 9.63469 159.37C5.52916 158.646 2.77829 154.718 3.50217 150.612C4.22606 146.507 8.15496 143.756 12.2603 144.48ZM9.39591 160.724C14.2556 161.581 18.8901 158.336 19.747 153.477C20.1612 151.128 19.6151 148.833 18.3934 146.99C17.0878 145.021 15.0101 143.568 12.4991 143.125C7.64862 142.27 3.02357 145.501 2.15365 150.345C2.15199 150.355 2.14965 150.364 2.148 150.373C1.29107 155.233 4.53621 159.868 9.39591 160.724Z" fill="#C5D6F1"/>
<path fill-rule="evenodd" clip-rule="evenodd" d="M11.8393 151.268C12.0654 151.212 12.2275 151.02 12.2811 150.716C12.3323 150.426 12.2429 150.205 12.0487 150.081C11.9768 150.035 11.8903 150.002 11.7912 149.985L10.7585 149.803L10.5312 151.092L11.5639 151.274C11.663 151.292 11.7556 151.289 11.8393 151.268Z" fill="#E0E9F8"/>
<path fill-rule="evenodd" clip-rule="evenodd" d="M11.3676 153.943C11.693 153.914 11.9206 153.704 11.9843 153.343C12.0428 153.011 11.8994 152.743 11.6035 152.606C11.5267 152.57 11.4399 152.543 11.3432 152.526L10.3105 152.344L10.0648 153.738L11.0957 153.929C11.1922 153.946 11.2832 153.951 11.3676 153.943Z" fill="#E0E9F8"/>
<path fill-rule="evenodd" clip-rule="evenodd" d="M10.9065 147.547L10.7554 148.404L11.2403 148.489L11.3914 147.632L12.4477 147.819L12.2955 148.682C13.3356 148.936 13.8818 149.689 13.7115 150.656C13.5894 151.348 13.1464 151.846 12.5712 151.941C13.1925 152.227 13.4801 152.952 13.3297 153.805C13.1346 154.912 12.2826 155.486 11.1249 155.321L10.9528 156.297L9.89646 156.11L10.0683 155.136L9.58335 155.051L9.41156 156.025L8.35543 155.839L8.52721 154.864L7.74 154.726L7.97906 153.37L8.73217 153.503L9.42599 149.568L8.67288 149.435L8.91206 148.079L9.69928 148.217L9.85033 147.361L10.9065 147.547ZM3.50213 150.612C2.77825 154.718 5.52912 158.646 9.63464 159.37C13.7402 160.094 17.6689 157.343 18.3928 153.238C19.1167 149.132 16.3658 145.204 12.2603 144.48C8.15492 143.756 4.22601 146.507 3.50213 150.612Z" fill="#E0E9F8"/>
<path fill-rule="evenodd" clip-rule="evenodd" d="M10.3105 152.344L11.3432 152.526C11.4398 152.543 11.5266 152.57 11.6034 152.606C11.8995 152.743 12.0429 153.011 11.9844 153.343C11.9207 153.704 11.6931 153.914 11.3676 153.943C11.2831 153.951 11.1921 153.946 11.0957 153.929L10.0647 153.738L10.3105 152.344ZM10.7585 149.803L11.7912 149.985C11.8903 150.002 11.9769 150.035 12.0486 150.081C12.2429 150.205 12.3322 150.426 12.2811 150.716C12.2274 151.02 12.0653 151.212 11.8392 151.268C11.7558 151.289 11.663 151.291 11.5639 151.274L10.5312 151.092L10.7585 149.803ZM9.69909 148.217L8.91206 148.078L8.67287 149.435L9.42598 149.568L8.73217 153.503L7.97906 153.37L7.73999 154.726L8.52703 154.864L8.35525 155.839L9.41156 156.025L9.58334 155.051L10.0682 155.136L9.89646 156.11L10.9526 156.297L11.1247 155.321C12.2826 155.486 13.1346 154.912 13.3297 153.805C13.4801 152.952 13.1925 152.227 12.5712 151.941C13.1464 151.846 13.5893 151.348 13.7113 150.655C13.8817 149.689 13.3354 148.936 12.2953 148.682L12.4475 147.819L11.3914 147.632L11.2403 148.489L10.7554 148.404L10.9065 147.547L9.85015 147.361L9.69909 148.217Z" fill="white"/>
</g>
<g opacity="0.7">
<path fill-rule="evenodd" clip-rule="evenodd" d="M205.26 123.48C209.366 124.204 212.117 128.132 211.393 132.238C210.669 136.343 206.74 139.094 202.635 138.37C198.529 137.646 195.778 133.718 196.502 129.612C197.226 125.507 201.155 122.756 205.26 123.48ZM202.396 139.724C207.256 140.581 211.89 137.336 212.747 132.477C213.161 130.128 212.615 127.833 211.393 125.99C210.088 124.021 208.01 122.568 205.499 122.125C200.649 121.27 196.024 124.501 195.154 129.345C195.152 129.355 195.15 129.364 195.148 129.373C194.291 134.233 197.536 138.868 202.396 139.724Z" fill="#C5D6F1"/>
<path fill-rule="evenodd" clip-rule="evenodd" d="M204.839 130.268C205.065 130.212 205.227 130.02 205.281 129.716C205.332 129.426 205.243 129.205 205.049 129.081C204.977 129.035 204.89 129.002 204.791 128.985L203.759 128.803L203.531 130.092L204.564 130.274C204.663 130.292 204.756 130.289 204.839 130.268Z" fill="#E0E9F8"/>
<path fill-rule="evenodd" clip-rule="evenodd" d="M204.368 132.943C204.693 132.914 204.921 132.704 204.984 132.343C205.043 132.011 204.899 131.743 204.603 131.606C204.527 131.57 204.44 131.543 204.343 131.526L203.311 131.344L203.065 132.738L204.096 132.929C204.192 132.946 204.283 132.951 204.368 132.943Z" fill="#E0E9F8"/>
<path fill-rule="evenodd" clip-rule="evenodd" d="M203.906 126.547L203.755 127.404L204.24 127.489L204.391 126.632L205.448 126.819L205.295 127.682C206.336 127.936 206.882 128.689 206.711 129.656C206.589 130.348 206.146 130.846 205.571 130.941C206.193 131.227 206.48 131.952 206.33 132.805C206.135 133.912 205.283 134.486 204.125 134.321L203.953 135.297L202.896 135.11L203.068 134.136L202.583 134.051L202.412 135.025L201.355 134.839L201.527 133.864L200.74 133.726L200.979 132.37L201.732 132.503L202.426 128.568L201.673 128.435L201.912 127.079L202.699 127.217L202.85 126.361L203.906 126.547ZM196.502 129.612C195.778 133.718 198.529 137.646 202.635 138.37C206.74 139.094 210.669 136.343 211.393 132.238C212.117 128.132 209.366 124.204 205.26 123.48C201.155 122.756 197.226 125.507 196.502 129.612Z" fill="#E0E9F8"/>
<path fill-rule="evenodd" clip-rule="evenodd" d="M203.31 131.344L204.343 131.526C204.44 131.543 204.527 131.57 204.603 131.606C204.9 131.743 205.043 132.011 204.984 132.343C204.921 132.704 204.693 132.914 204.368 132.943C204.283 132.951 204.192 132.946 204.096 132.929L203.065 132.738L203.31 131.344ZM203.758 128.803L204.791 128.985C204.89 129.002 204.977 129.035 205.049 129.081C205.243 129.205 205.332 129.426 205.281 129.716C205.227 130.02 205.065 130.212 204.839 130.268C204.756 130.289 204.663 130.291 204.564 130.274L203.531 130.092L203.758 128.803ZM202.699 127.217L201.912 127.078L201.673 128.435L202.426 128.568L201.732 132.503L200.979 132.37L200.74 133.726L201.527 133.864L201.355 134.839L202.412 135.025L202.583 134.051L203.068 134.136L202.896 135.11L203.953 135.297L204.125 134.321C205.283 134.486 206.135 133.912 206.33 132.805C206.48 131.952 206.193 131.227 205.571 130.941C206.146 130.846 206.589 130.348 206.711 129.655C206.882 128.689 206.335 127.936 205.295 127.682L205.447 126.819L204.391 126.632L204.24 127.489L203.755 127.404L203.906 126.547L202.85 126.361L202.699 127.217Z" fill="white"/>
</g>
</svg>
